<svg viewBox="0 0 330 200" xmlns="http://www.w3.org/2000/svg"><g><g><g><g><g><line x1="40" y1="178" x2="35" y2="178" style="visibility: inherit;" fill="rgb(0, 0, 0)" stroke="rgb(204, 204, 204)" stroke-width="1px"></line><line x1="40" y1="161.8181818181818" x2="35" y2="161.8181818181818" style="visibility: inherit;" fill="rgb(0, 0, 0)" stroke="rgb(204, 204, 204)" stroke-width="1px"></line><line x1="40" y1="145.63636363636363" x2="35" y2="145.63636363636363" style="visibility: inherit;" fill="rgb(0, 0, 0)" stroke="rgb(204, 204, 204)" stroke-width="1px"></line><line x1="40" y1="129.45454545454547" x2="35" y2="129.45454545454547" style="visibility: inherit;" fill="rgb(0, 0, 0)" stroke="rgb(204, 204, 204)" stroke-width="1px"></line><line x1="40" y1="113.27272727272727" x2="35" y2="113.27272727272727" style="visibility: inherit;" fill="rgb(0, 0, 0)" stroke="rgb(204, 204, 204)" stroke-width="1px"></line><line x1="40" y1="97.09090909090908" x2="35" y2="97.09090909090908" style="visibility: inherit;" fill="rgb(0, 0, 0)" stroke="rgb(204, 204, 204)" stroke-width="1px"></line><line x1="40" y1="80.90909090909092" x2="35" y2="80.90909090909092" style="visibility: inherit;" fill="rgb(0, 0, 0)" stroke="rgb(204, 204, 204)" stroke-width="1px"></line><line x1="40" y1="64.72727272727273" x2="35" y2="64.72727272727273" style="visibility: inherit;" fill="rgb(0, 0, 0)" stroke="rgb(204, 204, 204)" stroke-width="1px"></line><line x1="40" y1="48.54545454545454" x2="35" y2="48.54545454545454" style="visibility: inherit;" fill="rgb(0, 0, 0)" stroke="rgb(204, 204, 204)" stroke-width="1px"></line><line x1="40" y1="32.36363636363635" x2="35" y2="32.36363636363635" style="visibility: inherit;" fill="rgb(0, 0, 0)" stroke="rgb(204, 204, 204)" stroke-width="1px"></line><line x1="40" y1="16.181818181818187" x2="35" y2="16.181818181818187" style="visibility: inherit;" fill="rgb(0, 0, 0)" stroke="rgb(204, 204, 204)" stroke-width="1px"></line><line x1="40" y1="0" x2="35" y2="0" style="visibility: inherit;" fill="rgb(0, 0, 0)" stroke="rgb(204, 204, 204)" stroke-width="1px"></line></g><g transform="translate(30, 0)"><text x="0" y="178" dx="0em" dy="0.3em" style="text-anchor: end; visibility: hidden; font-family: Roboto, sans-serif; font-size: 12px; font-weight: 200;" fill="rgb(50, 49, 63)" stroke="none" stroke-width="1px">0</text><text x="0" y="161.8181818181818" dx="0em" dy="0.3em" style="text-anchor: end; visibility: inherit; font-family: Roboto, sans-serif; font-size: 12px; font-weight: 200;" fill="rgb(50, 49, 63)" stroke="none" stroke-width="1px">10</text><text x="0" y="145.63636363636363" dx="0em" dy="0.3em" style="text-anchor: end; visibility: hidden; font-family: Roboto, sans-serif; font-size: 12px; font-weight: 200;" fill="rgb(50, 49, 63)" stroke="none" stroke-width="1px">20</text><text x="0" y="129.45454545454547" dx="0em" dy="0.3em" style="text-anchor: end; visibility: inherit; font-family: Roboto, sans-serif; font-size: 12px; font-weight: 200;" fill="rgb(50, 49, 63)" stroke="none" stroke-width="1px">30</text><text x="0" y="113.27272727272727" dx="0em" dy="0.3em" style="text-anchor: end; visibility: hidden; font-family: Roboto, sans-serif; font-size: 12px; font-weight: 200;" fill="rgb(50, 49, 63)" stroke="none" stroke-width="1px">40</text><text x="0" y="97.09090909090908" dx="0em" dy="0.3em" style="text-anchor: end; visibility: inherit; font-family: Roboto, sans-serif; font-size: 12px; font-weight: 200;" fill="rgb(50, 49, 63)" stroke="none" stroke-width="1px">50</text><text x="0" y="80.90909090909092" dx="0em" dy="0.3em" style="text-anchor: end; visibility: hidden; font-family: Roboto, sans-serif; font-size: 12px; font-weight: 200;" fill="rgb(50, 49, 63)" stroke="none" stroke-width="1px">60</text><text x="0" y="64.72727272727273" dx="0em" dy="0.3em" style="text-anchor: end; visibility: inherit; font-family: Roboto, sans-serif; font-size: 12px; font-weight: 200;" fill="rgb(50, 49, 63)" stroke="none" stroke-width="1px">70</text><text x="0" y="48.54545454545454" dx="0em" dy="0.3em" style="text-anchor: end; visibility: hidden; font-family: Roboto, sans-serif; font-size: 12px; font-weight: 200;" fill="rgb(50, 49, 63)" stroke="none" stroke-width="1px">80</text><text x="0" y="32.36363636363635" dx="0em" dy="0.3em" style="text-anchor: end; visibility: inherit; font-family: Roboto, sans-serif; font-size: 12px; font-weight: 200;" fill="rgb(50, 49, 63)" stroke="none" stroke-width="1px">90</text><text x="0" y="16.181818181818187" dx="0em" dy="0.3em" style="text-anchor: end; visibility: hidden; font-family: Roboto, sans-serif; font-size: 12px; font-weight: 200;" fill="rgb(50, 49, 63)" stroke="none" stroke-width="1px">100</text><text x="0" y="0" dx="0em" dy="0.3em" style="text-anchor: end; visibility: hidden; font-family: Roboto, sans-serif; font-size: 12px; font-weight: 200;" fill="rgb(50, 49, 63)" stroke="none" stroke-width="1px">110</text></g><line x1="40" y1="0" x2="40" y2="178" fill="rgb(0, 0, 0)" stroke="rgb(204, 204, 204)" stroke-width="1px"></line></g></g><g transform="translate(40, 0)" clip-path="url(#clip_0)"><clipPath id="clip_0"><rect width="290" height="178"></rect></clipPath><g><g><g><line x1="0" y1="0" x2="0" y2="178" fill="rgb(0, 0, 0)" stroke="rgb(60, 60, 60)" stroke-width="1px" opacity="0.25"></line><line x1="24.166666666666664" y1="0" x2="24.166666666666664" y2="178" fill="rgb(0, 0, 0)" stroke="rgb(60, 60, 60)" stroke-width="1px" opacity="0.25"></line><line x1="48.33333333333333" y1="0" x2="48.33333333333333" y2="178" fill="rgb(0, 0, 0)" stroke="rgb(60, 60, 60)" stroke-width="1px" opacity="0.25"></line><line x1="72.5" y1="0" x2="72.5" y2="178" fill="rgb(0, 0, 0)" stroke="rgb(60, 60, 60)" stroke-width="1px" opacity="0.25"></line><line x1="96.66666666666666" y1="0" x2="96.66666666666666" y2="178" fill="rgb(0, 0, 0)" stroke="rgb(60, 60, 60)" stroke-width="1px" opacity="0.25"></line><line x1="120.83333333333334" y1="0" x2="120.83333333333334" y2="178" fill="rgb(0, 0, 0)" stroke="rgb(60, 60, 60)" stroke-width="1px" opacity="0.25"></line><line x1="145" y1="0" x2="145" y2="178" fill="rgb(0, 0, 0)" stroke="rgb(60, 60, 60)" stroke-width="1px" opacity="0.25"></line><line x1="169.16666666666669" y1="0" x2="169.16666666666669" y2="178" fill="rgb(0, 0, 0)" stroke="rgb(60, 60, 60)" stroke-width="1px" opacity="0.25"></line><line x1="193.33333333333331" y1="0" x2="193.33333333333331" y2="178" fill="rgb(0, 0, 0)" stroke="rgb(60, 60, 60)" stroke-width="1px" opacity="0.25"></line><line x1="217.5" y1="0" x2="217.5" y2="178" fill="rgb(0, 0, 0)" stroke="rgb(60, 60, 60)" stroke-width="1px" opacity="0.25"></line><line x1="241.66666666666669" y1="0" x2="241.66666666666669" y2="178" fill="rgb(0, 0, 0)" stroke="rgb(60, 60, 60)" stroke-width="1px" opacity="0.25"></line><line x1="265.8333333333333" y1="0" x2="265.8333333333333" y2="178" fill="rgb(0, 0, 0)" stroke="rgb(60, 60, 60)" stroke-width="1px" opacity="0.25"></line><line x1="290" y1="0" x2="290" y2="178" fill="rgb(0, 0, 0)" stroke="rgb(60, 60, 60)" stroke-width="1px" opacity="0.25"></line></g><g><line x1="0" y1="178" x2="290" y2="178" fill="rgb(0, 0, 0)" stroke="rgb(60, 60, 60)" stroke-width="1px" opacity="0.25"></line><line x1="0" y1="161.8181818181818" x2="290" y2="161.8181818181818" fill="rgb(0, 0, 0)" stroke="rgb(60, 60, 60)" stroke-width="1px" opacity="0.25"></line><line x1="0" y1="145.63636363636363" x2="290" y2="145.63636363636363" fill="rgb(0, 0, 0)" stroke="rgb(60, 60, 60)" stroke-width="1px" opacity="0.25"></line><line x1="0" y1="129.45454545454547" x2="290" y2="129.45454545454547" fill="rgb(0, 0, 0)" stroke="rgb(60, 60, 60)" stroke-width="1px" opacity="0.25"></line><line x1="0" y1="113.27272727272727" x2="290" y2="113.27272727272727" fill="rgb(0, 0, 0)" stroke="rgb(60, 60, 60)" stroke-width="1px" opacity="0.25"></line><line x1="0" y1="97.09090909090908" x2="290" y2="97.09090909090908" fill="rgb(0, 0, 0)" stroke="rgb(60, 60, 60)" stroke-width="1px" opacity="0.25"></line><line x1="0" y1="80.90909090909092" x2="290" y2="80.90909090909092" fill="rgb(0, 0, 0)" stroke="rgb(60, 60, 60)" stroke-width="1px" opacity="0.25"></line><line x1="0" y1="64.72727272727273" x2="290" y2="64.72727272727273" fill="rgb(0, 0, 0)" stroke="rgb(60, 60, 60)" stroke-width="1px" opacity="0.25"></line><line x1="0" y1="48.54545454545454" x2="290" y2="48.54545454545454" fill="rgb(0, 0, 0)" stroke="rgb(60, 60, 60)" stroke-width="1px" opacity="0.25"></line><line x1="0" y1="32.36363636363635" x2="290" y2="32.36363636363635" fill="rgb(0, 0, 0)" stroke="rgb(60, 60, 60)" stroke-width="1px" opacity="0.25"></line><line x1="0" y1="16.181818181818187" x2="290" y2="16.181818181818187" fill="rgb(0, 0, 0)" stroke="rgb(60, 60, 60)" stroke-width="1px" opacity="0.25"></line><line x1="0" y1="0" x2="290" y2="0" fill="rgb(0, 0, 0)" stroke="rgb(60, 60, 60)" stroke-width="1px" opacity="0.25"></line></g></g></g><g><g><line x1="0" y1="178" x2="290" y2="178" fill="rgb(0, 0, 0)" stroke="rgb(153, 153, 153)" stroke-width="1.5px"></line></g></g><g><g><line x1="24.166666666666664" y1="0" x2="24.166666666666664" y2="178" fill="rgb(0, 0, 0)" stroke="rgb(153, 153, 153)" stroke-width="1.5px"></line></g></g><g><g><g><g><g><path stroke="rgb(255, 112, 67)" stroke-width="2px" d="M24.562613333333335,14.56363636363634L24.6616,14.56363636363634L25.25552,14.56363636363634L25.651466666666664,14.563636363636359L25.750453333333333,14.563636363636359L26.047413333333335,14.563636363636359L26.1464,14.563636363636359L26.24538666666667,14.563636363636359L26.443360000000002,14.56363636363634L26.542346666666667,14.56363636363634L26.839306666666666,14.563636363636359L26.93829333333333,14.56363636363634L27.532213333333335,14.563636363636359L28.027146666666667,14.563636363636359L28.22512,14.563636363636359L28.91802666666667,14.563636363636359L29.017013333333335,14.563636363636359L29.116,14.563636363636359L29.313973333333333,14.563636363636359L29.61093333333333,14.56363636363634L29.90789333333333,14.563636363636359L30.204853333333336,14.56363636363634L30.30384,14.56363636363634L30.40282666666667,14.563636363636359L30.501813333333335,14.56363636363634L30.699786666666668,14.563636363636359L30.798773333333333,14.56363636363634L30.89776,14.563636363636359L30.996746666666667,14.563636363636379L31.19472,14.563636363636359L31.293706666666665,14.56363636363634L31.88762666666667,14.563636363636359L32.0856,14.56363636363634L32.18458666666667,14.56363636363634L32.38256,14.56363636363634L32.67952,14.56363636363634L33.07546666666667,14.56363636363634L34.065333333333335,14.634836758964637L34.16432,14.677556995992413L34.461279999999995,14.631988742989098L34.75824,14.604647791226085L34.85722666666667,14.588243220182294L35.0552,14.578400477561082L35.748106666666665,14.572494831990165L36.24304,14.568951444648299L36.63898666666667,14.929296559283038L36.737973333333336,15.145503628049495L36.935946666666666,15.145775299166344L37.133919999999996,15.152412411832996L37.232906666666665,15.156394679432902L37.72784,15.961400839091237L37.82682666666666,16.4444045348837L38.519733333333335,16.637114855607404L38.71770666666667,16.111942430764483L38.81669333333333,15.796838975859048L39.11365333333333,15.303557930969783L39.80656,15.00758930403635L40.103519999999996,14.830008127876338L40.30149333333333,14.723459422180298L40.49946666666666,14.659530198762734L41.09338666666667,14.621172664712192L41.192373333333336,14.598158144281859L41.291360000000005,14.584349432023659L41.58832,14.576064204668727L41.68730666666667,14.571093068255795L41.78629333333333,14.568110386408005L42.18224,14.566320777299362L42.4792,14.565247011834153L42.57818666666667,14.564602752555027L42.677173333333336,14.564216196987552L43.073119999999996,14.563984263647047L43.172106666666664,14.563845103642787L43.27109333333333,14.563761607640195L43.56805333333333,14.563711510038658L43.964000000000006,14.563681451477718L44.260960000000004,14.563663416341175L44.359946666666666,14.563652595259253L44.458933333333334,14.563646102610083L44.55792,14.563642207020573L44.75589333333333,14.563639869666892L44.95386666666667,14.56363846725467L45.15184,14.563637625807345L45.34981333333333,14.563637120938935L45.54778666666667,14.563636818017896L45.646773333333336,14.563636636265281L45.943733333333334,14.563636527213712L46.042719999999996,14.563636461782759L46.141706666666664,14.563636422524203L46.24069333333333,14.563636398969061L46.43866666666666,14.563636384835952L46.933600000000006,14.563636376356111L47.72549333333333,14.563636371268213L47.92346666666667,14.563636368215464L48.12144,14.563636366383806L48.4184,14.563636365284843L48.51738666666667,14.563636364625465L48.616373333333335,14.563636364229811L49.309279999999994,14.56363636399243L49.40826666666666,14.563636363849985L49.80421333333334,14.563636363764534L49.903200000000005,14.563636363713252L50.00218666666667,14.563636363682503L50.200160000000004,14.563636363664045L50.99205333333333,14.563636363652959L51.09104,14.563636363646319L51.388,14.563636363642347L51.585973333333335,14.563636363639954L51.783946666666665,14.563636363638533L51.981919999999995,14.725454545455817L52.17989333333333,14.822545454546226L52.278879999999994,14.880800000000455L52.47685333333334,14.753934545454817L52.67482666666667,14.677815272727438L52.77381333333334,14.632143709091002L52.97178666666667,14.604740770909153L53.46672,14.588299008000055L53.56570666666667,14.578433950254572L53.66469333333333,14.572514915607266L53.76368,14.568963494818899L54.55557333333333,14.566832642345895L54.753546666666665,14.565554130862052L54.852533333333334,14.564787023971755L55.14949333333333,14.564326759837593L55.545440000000006,14.564050601357092L55.743413333333336,14.563884906268786L55.842400000000005,14.5637854892158L56.13936,14.563725838984015L56.33733333333333,14.563690048844952L56.83226666666667,14.563668574761524L57.03024,14.56365569031146L57.12922666666667,14.5636479596414L57.624159999999996,14.563643321239384L57.723146666666665,14.563640538198166L57.921119999999995,14.563638868373431L58.21808,14.563637866478594L58.41605333333334,14.563637265341704L58.515040000000006,14.56363690465955L58.910986666666666,14.56363668825025L59.10896,14.563636558404681L59.207946666666665,14.563636480497344L59.30693333333333,14.563636433752954L59.70288,14.563636405706292L60.09882666666667,14.563636388878342L60.19781333333333,14.563636378781537L60.2968,14.563636372723446L60.395786666666666,14.563636369088607L60.49477333333333,14.563636366907696L60.593759999999996,14.563636365599137L61.28666666666667,14.673671543258632L61.58362666666667,14.739692649854344L61.682613333333336,14.779305313811772L62.47450666666667,14.693037733741619L62.87045333333333,14.641277185699499L62.96944,14.610220856874259L63.06842666666667,14.591587059579078L63.16741333333333,14.671024567956254L63.2664,14.718687072982554L63.563359999999996,14.747284575998338L64.05829333333334,14.673825291053554L64.25626666666668,14.62974972008668L64.65221333333334,14.603304377506552L64.7512,14.58743717195847L65.14714666666667,14.733260920451357L65.24613333333333,14.82075516954709L65.34512,14.717907647182797L65.64207999999999,14.93452660402347L65.93903999999999,15.38813434176422L66.03802666666667,15.647355702714778L66.33498666666667,15.259176860460553L66.43397333333333,15.026269555107993L66.82992,14.841216278519331L67.32485333333334,14.730184312566125L67.42384,14.663565132994231L67.52282666666667,14.623593625251074L67.7208,14.599610720605185L67.81978666666667,14.585220977817634L67.91877333333333,14.57658713214514L68.11674666666667,14.571406824741604L68.21573333333333,14.568298640299501L68.31472,14.818869698206695L68.41370666666667,14.969212332951011L68.80965333333333,14.806981945225143L69.00762666666667,14.70964371258963L69.10661333333333,14.651240773008317L69.2056,14.616199009259542L69.40357333333333,14.595173951010256L69.60154666666666,14.58255891606069L69.79952,14.574989895090956L69.89850666666668,14.570448482509105L70.29445333333334,14.567723634960023L70.39344,14.56608872643055L70.59141333333334,14.610416674689986L70.78938666666667,14.63701344364567L71.18533333333333,14.60766261164194L71.28432,14.590052112439688L71.58127999999999,14.57948581291836L71.68026666666667,14.57314603320556L71.77925333333333,14.56934216537786L71.87823999999999,14.567059844681255L72.07621333333333,14.565690452263288L72.1752,14.564868816812513L72.47216,14.564375835542059L72.57114666666666,14.564080046779775L72.67013333333334,14.563902573522409L72.86810666666668,14.563796089568001L73.16506666666666,14.56373219919534L73.56101333333332,14.563693864971759L73.95696,14.563670864437595L74.05594666666667,14.563657064117104L74.35290666666667,14.563648783924801L74.64986666666667,14.563643815809417L74.74885333333334,14.56364083494019L74.84783999999999,14.563639046418642L74.94682666666667,14.563637973305736L75.04581333333333,14.563637329437974L75.1448,14.563636943117311L75.44176,14.686620109762435L75.54074666666666,14.760410009749533L75.63973333333333,14.804683949741753L75.73872,14.831248313737108L76.03568,14.724203533696796L76.72858666666667,14.659976665672634L77.02554666666667,14.621440544858116L77.12453333333333,14.598318872369413L77.32250666666667,14.584445868876184L77.42149333333334,14.576122066780249L77.52047999999999,14.571127785522693L77.71845333333333,14.56813121676817L77.91642666666667,14.566333275515438L78.1144,14.565254510763815L78.31237333333333,14.564607251912852L78.41136,14.56421889660225L78.70832,14.563985883415878L78.90629333333332,14.563846075504074L79.20325333333334,14.563762190756975L79.30224,15.055640515359729L79.89616000000001,14.858838854670385L79.99514666666667,14.740757858256758L80.09413333333335,14.669909260408614L80.49008,14.6274001016997L80.78703999999999,14.601894606474383L80.98501333333333,14.58659130933915L81.28197333333334,15.27646506170434L81.67792,16.408862435460122L82.07386666666667,16.71288149270362L82.17285333333332,16.93412771043041L82.27184,16.52316872054091L82.46981333333333,16.723208150382074L82.66778666666667,18.19603437620226L82.76677333333335,20.36132734624693L82.86576,22.760869727616782L83.06373333333333,25.501614720980587L83.26170666666667,27.411440967265218L83.36069333333334,28.46671892828173L83.45967999999999,29.71479282048112L83.55866666666667,31.62873004021127L83.85562666666667,34.03280304321412L83.95461333333334,35.391098229959L84.44954666666666,36.37436763382056L84.64752,38.51778480925186L84.94448,37.473654283988616L85.04346666666666,36.30993842000253L85.24144,35.301015819668436L85.43941333333332,35.06460751648146L85.63738666666667,35.80305383872411L85.83536000000001,34.271942776867284L85.93434666666667,32.725420804170795L86.23130666666667,29.350817501589823L86.42928,24.63987271419963L86.52826666666667,21.114250111119205L86.92421333333333,18.642879512250357L87.32016,17.011182252804755L87.61712,16.711802236093366L87.71610666666666,16.532174226066534L87.81509333333334,16.42439742005042L87.91408,16.359731336440767L88.01306666666667,16.392132081338914L88.50800000000001,16.087936164641395L88.70597333333335,17.756614071387812L88.80496,19.62516883789661L88.90394666666667,22.69459398961651L89.00293333333333,26.122065287147016L89.10192,29.55076802527115L89.39887999999999,30.83125943243898L89.59685333333333,33.47017206349392L90.28976,33.784865689268216L90.58672,32.53026644836205L91.08165333333334,31.913433583949733L91.18064,31.10318821322494L91.27962666666667,31.10249553624461L91.57658666666667,33.71058823083769L91.77456000000001,34.10388179148554L91.87354666666667,35.00654804683735L91.97253333333335,35.96240195043905L92.26949333333333,38.75605994467748L92.76442666666667,37.63603675693433L92.9624,34.33609715181685L93.16037333333334,36.019694457194504L93.25936,38.99108841392963L93.45733333333332,40.003673600559516L93.75429333333334,37.504313646308724L93.85328,38.244260717526L94.05125333333332,38.03448212298718L94.44720000000001,38.051015756391756L94.54618666666667,39.16777170747497L94.74416,40.42037172033017L95.04112,43.07491512648079L95.23909333333334,42.408655796414024L95.53605333333333,40.46839288525254L95.63504,40.223361226091164L95.83301333333334,41.21554361331807L96.03098666666666,42.78823624655974L96.12997333333333,44.47621645052817L96.32794666666666,46.67998402070752L96.42693333333334,46.96660918683859L96.62490666666667,47.46222065015358L96.72389333333332,46.665695038795974L96.82288,47.81890971015613L97.31781333333333,46.78909068804325L97.71376000000001,41.963926547502794L97.81274666666667,39.09471956486533L97.91173333333334,37.12075940671039L99.00058666666666,38.8620538662386L99.09957333333334,38.10093904026872L99.29754666666666,37.87728872156892L99.89146666666667,42.87597145515371L99.99045333333333,45.18259947465472L100.28741333333333,42.62468774764794L100.38640000000001,41.141723714817445L100.68336,39.520523952789624L100.98032,38.127075835185835L101.07930666666667,41.064608149815356L101.27727999999999,41.480799080674025L101.37626666666667,42.06709822281846L101.47525333333333,38.45756683940842L101.57424,36.37599662441922L101.67322666666666,34.22734579958052L102.26714666666666,32.87989819130727L102.56410666666666,43.30161045686533L103.356,40.90707378477262L103.85093333333334,43.26337035839907L103.94991999999999,44.9684239928271L104.04890666666667,44.36032613530919L104.14789333333333,43.67830516715851L104.44485333333334,53.871418081207764L105.23674666666666,59.217034642226075L105.33573333333332,61.091019402611906L105.53370666666666,60.85613851923049L105.73168000000001,62.28160880400988L106.12762666666667,60.89732793110975L106.22661333333333,59.516578576847664L106.62256,59.74318173195733L106.72154666666667,62.28052485060907L106.91952,62.24948012698475L107.01850666666667,61.64183274060847L107.11749333333334,62.02160893280612L107.31546666666667,62.003512789548715L107.41445333333333,63.11890826632511L107.71141333333334,62.47418270615513L107.90938666666666,65.61498175836992L108.40432,69.33124419307238L108.50330666666666,72.02703633850854L108.80026666666667,72.51825599388992L109.09722666666667,72.15924588814858L109.39418666666667,72.64289061705107L109.59216,70.80355452736842L109.88911999999999,70.26307698577475L109.98810666666667,70.8643906583505L110.38405333333334,68.13121601566016L110.48303999999999,68.10949304822778L111.76986666666667,69.15151203543525L111.86885333333333,72.87068874314502L111.96784,74.29310385867998L112.16581333333333,69.87775085391536L112.36378666666667,68.45835822053459L112.56175999999999,70.88839763939637L112.85872,68.61165735805187L113.05669333333334,69.89943038340357L113.15567999999999,73.1640956801043L113.45264,70.54667440468897L113.55162666666666,69.41636729151722L113.74959999999999,70.70589270711913L114.04656,70.75466072414721L114.14554666666666,71.5865432717575L114.34352000000001,64.2407255679906L114.44250666666666,63.140798977157985L114.73946666666667,62.77211377461156L115.13541333333333,65.3859603590496L115.2344,66.65652344776284L115.43237333333333,65.53529529424362L115.63034666666667,66.7914333022564L116.02629333333333,68.76846116654559L116.12528,68.61482353719653L116.32325333333334,65.771731868678L116.42223999999999,66.46725809315282L116.52122666666666,69.33773805679724L116.62021333333333,72.79471467245723L116.81818666666666,71.69726575970658L117.21413333333334,73.09064977231898L117.41210666666667,74.45744361871809L117.51109333333333,74.36486794901849L117.80805333333333,72.05681128343808L118.20400000000001,68.19292155344351L118.50095999999999,65.07844502634876L118.79792,64.22597709437817L118.89690666666667,66.43951392441811L119.29285333333333,69.96836181367964L119.49082666666666,73.86567054723652L119.58981333333334,77.45976645853544L119.78778666666666,84.68436817590253L119.98576,88.0805857270969L120.08474666666667,88.73315054736432L120.38170666666666,89.79138202763734L120.87664000000001,89.10588395956891L121.07461333333333,87.46476594924988L121.1736,85.78751352240859L121.37157333333333,88.71658143331378L121.47056,89.24420301037888L121.86650666666667,91.49612249758918L122.26245333333334,91.24203812257696L122.46042666666666,93.39387682640482L122.6584,90.1022904235684L122.85637333333334,94.52239134953344L123.05434666666666,97.724635204784L123.15333333333334,99.55536373118005L123.45029333333333,97.26856477967925L123.54928000000001,95.06150299800112L123.64826666666667,94.4622106921778L123.84624,92.0766709809583L124.34117333333334,94.7231673113644L124.53914666666667,97.54735591993301L124.73712,98.67226839371229L124.83610666666667,97.77434295317516L124.93509333333334,96.53653195820661L125.43002666666666,99.27617332531459L125.82597333333334,95.54759500304564L126.02394666666667,95.70535759442328L126.12293333333334,96.55085141412022L126.71685333333333,98.25560126373313L126.81584000000001,97.83503328798064L126.91482666666667,97.93869200869925L127.01381333333333,100.78415947457326L127.1128,102.59500596084479L127.50874666666667,103.36434912981832L127.80570666666667,102.36311975399184L128.39962666666668,92.15685475700269L128.49861333333334,82.82909526497932L128.79557333333332,81.16138482677879L128.99354666666667,75.00846824736344L129.09253333333334,71.73744656010129L129.19152,66.35722939957284L129.38949333333332,62.268230129090284L129.68645333333333,65.42020981706712L129.88442666666668,65.82267332010534L130.0824,68.91862158128548L130.18138666666667,72.73095447065516L130.28037333333333,78.30002673401775L130.37936,79.09768807632152L130.47834666666668,77.29141294455889L130.5773333333333,74.29819282621688L130.87429333333333,74.04276806833312L130.97328,74.07075372541038L131.17125333333334,68.18441606914183L131.27024,66.94395952252205L131.36922666666666,66.84695832182288L131.66618666666668,67.97973704920167L131.76517333333334,69.0477718726318L131.86416,68.59470027734329L132.26010666666667,70.24525811029801L132.95301333333333,69.24199162487908L133.15098666666668,70.45886651700842L133.34896,70.19219085969014L133.44794666666667,66.9252793373695L133.54693333333333,63.82593104125336L133.84389333333334,68.21897651027226L134.04186666666666,70.1557505301868L134.23984,68.7546155347314L134.33882666666668,68.21815350940416L134.5368,72.09707491148411L135.03173333333334,67.28501036104174L135.2297066666667,70.7086782525359L135.32869333333332,74.27749726801657L135.62565333333333,75.44140794554895L135.72464,78.37931739583613L135.92261333333332,74.8797351019193L136.0216,73.20071398595627L136.21957333333333,75.2807925217673L136.31856,77.87516563202345L136.5165333333333,81.85906222544986L136.61552,80.52111035884059L136.71450666666667,79.47884902114596L137.01146666666668,83.11901959002243L137.30842666666666,83.22537460024927L137.60538666666667,75.4507144840487L137.70437333333334,69.56904746484328L137.90234666666666,71.26353796487896L138.10032,71.6394336476241L138.19930666666667,74.10453410103896L138.29829333333333,74.39908409698702L138.39728,73.60490500364675L139.09018666666668,66.85632324011416L139.28816,59.823246514203454L139.48613333333333,60.05664000280475L139.78309333333334,63.93791166947405L140.37701333333334,70.6163481868762L140.476,74.59104448563424L140.67397333333332,72.52262767904034L140.77296,70.50484735937734L140.87194666666667,70.34276276354898L141.26789333333332,71.74071042579627L141.46586666666667,73.29148050463436L141.66384,76.59743474498588L141.86181333333332,78.38035185484841L141.9608,78.53097356408091L142.05978666666667,77.35269263676176L142.35674666666668,80.62645234075733L142.4557333333333,83.37390757055881L142.55472,81.5594726051904L142.75269333333333,75.9852114284374L142.85168,72.64065472238559L143.14864,73.44955607473106L143.54458666666667,75.60486170769376L143.64357333333334,74.93033540396638L143.74256,76.79754580803146L143.94053333333332,77.58128993599075L144.33648,82.45946457438741L144.43546666666668,85.91713279625709L144.83141333333333,94.74278847236542L145.32634666666667,99.1061100396515L145.52432000000002,105.18701108327244L145.92026666666666,105.55387917970424L146.21722666666668,106.69960023509526L146.31621333333334,106.77212328359089L146.81114666666667,108.82218404872343L147.00912000000002,107.281891556054L147.20709333333332,111.38702544765941L147.30607999999998,114.01839807443724L147.40506666666667,112.71685752031043L147.60304,110.2206594729018L147.9,108.39930428082027L147.99898666666667,109.0217648805039L148.09797333333333,109.09749637836447L148.19696000000002,109.41478863734362L148.3949333333333,109.6569469961047L148.59290666666666,110.79904013480768L148.69189333333333,107.0893160764013L148.98885333333334,108.31991810375982L149.08784,107.88671479491747L149.68176000000003,106.90184804642847L150.07770666666667,107.94205309721079L150.57264,112.79286871579272L150.67162666666667,116.65484731701115L150.77061333333333,116.41530918033455L151.16655999999998,119.19078521190279L151.46352,113.21825314285546L151.95845333333335,113.17531650973672L152.25541333333334,108.8969729092156L152.75034666666667,109.6634198128678L152.84933333333333,111.03594240174766L153.14629333333335,115.06992808975242L153.54224000000002,117.69097493690367L153.93818666666667,119.18593100928352L154.43312,124.65264976157599L154.92805333333334,125.51188116110042L155.12602666666666,133.29629243178988L155.42298666666667,134.7111569315748L155.52197333333334,134.49854875378242L155.71994666666666,136.92771161366417L156.41285333333332,137.20717192891405L157.30373333333333,141.91223008439476L157.40272000000002,144.27570193391543L157.6006933333333,139.21458489547888L157.69968000000003,137.6213325579372L157.99663999999999,133.96625383330192L158.09562666666667,136.83487912826152L158.2936,138.19358192364547L158.68954666666667,141.37782168392806L158.88752000000002,139.62480200249993L159.28346666666667,142.74142690296037L159.38245333333333,146.3460929498595L159.48144,143.9391462345597L159.58042666666665,142.55323284960033L159.67941333333334,140.83492187362296L160.07536000000002,142.42538933966117L160.37232,145.21145158808292L160.47130666666666,148.24883478674536L160.86725333333334,148.71199173175515L161.36218666666667,147.17104988080555L161.46117333333333,147.85819371299593L161.85711999999998,149.3578983916603L162.15408,147.70099343230177L162.55002666666667,147.41885070360158L163.14394666666666,148.3305105703099L164.43077333333332,148.88397936575663L164.52975999999998,150.93133312338242L164.92570666666666,142.20469137571624L165.91557333333333,146.3541602552837L166.01456,145.56216843599603L166.41050666666666,147.27475585396712L166.60848000000001,147.09838063695858L166.70746666666668,148.66899196915577L166.80645333333334,147.7601583734102L166.90544000000003,147.7003127614174L167.20239999999998,142.55742397110382L167.49936,144.9476186116218L167.69733333333335,143.9932986866153L167.89530666666667,146.5599797057991L167.99429333333333,144.06100541270177L168.19226666666668,147.74627614773425L168.29125333333332,144.04783851467926L168.39023999999998,143.10390276312663L168.48922666666667,143.19775979031115L168.58821333333333,146.00498309753098L168.6872,145.72160863293266L168.78618666666665,147.86882026842702L168.88517333333334,148.11503776375065L169.08314666666666,150.02334963467973L169.77605333333332,145.73771897048292L170.07301333333334,146.67455880316598L170.172,144.62168029199813L170.36997333333335,146.47097151526458L171.06287999999998,149.5288373064643L171.45882666666665,149.81657535806627L171.6568,149.4972907681512L171.75578666666667,150.73619276616637L172.05274666666668,151.05880632187578L172.1517333333333,152.16502951927737L172.54767999999999,151.51479997419514L172.64666666666668,152.6198619014649L172.74565333333334,151.85242568857512L172.94362666666666,152.95189175208995L173.63653333333332,149.4431352981689L173.73551999999998,150.0111172462398L173.83450666666667,145.36143428040543L174.03248,147.44558734714064L174.23045333333334,149.4210251849401L174.32944,151.23414260591477L175.02234666666666,148.17946723358173L175.51728,147.66062609099242L176.11120000000003,148.44968430105763L176.40815999999998,150.32122883652724L176.50714666666667,152.18204668912338L176.80410666666666,151.7321373512981L177.4970133333333,145.002410226719L177.79397333333333,146.60231881392113L177.89296,147.82764568565827L177.99194666666668,145.77956957525768L178.88282666666666,148.02010488768835L179.17978666666667,149.7268990740259L179.27877333333333,150.14901236922023L179.47674666666666,150.84242599841426L179.67472,151.65331031734357L179.77370666666667,152.74180412530936L179.87269333333333,151.42719196115863L179.97168000000002,150.6190060364031L180.26863999999998,150.32180416505474L180.46661333333333,150.8425375383173L180.66458666666668,152.4301043905552L180.76357333333334,145.00693506530789L180.86256,143.7117250706123L181.15952000000001,145.9120526315897L181.65445333333332,148.06723157895382L182.14938666666666,148.55772091370306L182.24837333333335,150.45077770646935L182.34736,151.52835775519597L182.74330666666665,152.88690541405953L182.84229333333332,145.41047071869494L182.94127999999998,139.90191904176828L183.73317333333335,144.60355098061407L183.93114666666668,147.94882132461888L184.0301333333333,148.93976492944816L184.22810666666666,150.8936046838208L184.82202666666666,152.38307202465904L185.02,152.72009748864352L185.21797333333333,153.1294404595169L185.31696000000002,149.67911832733478L185.71290666666667,137.0389626956196L186.10885333333334,139.26105088785738L186.30682666666667,144.67859436661004L186.60378666666668,146.45981106665457L186.7027733333333,149.64512320116108L187.19770666666668,151.67929202844033L187.29669333333334,151.83179295443549L187.49466666666666,151.4313660891563L187.69264,152.51154692622106L187.79162666666667,152.2081649638159L187.89061333333333,152.3950810433863L187.98960000000002,152.1641757012271L188.18757333333332,152.8994509246647L188.38554666666667,153.72897994200585L188.78149333333334,151.1197875207566L188.97946666666667,150.51870828349445L189.17744000000002,149.97682516762862L189.4744,150.93976787723287L189.57338666666666,152.2230608744887L189.96933333333334,152.96067291302109L190.26629333333335,153.84338578821792L190.46426666666667,136.21054174903162L190.5632533333333,130.61483335020023L190.76122666666666,128.78497234232893L191.05818666666667,135.31840178474752L191.15717333333333,139.19315055682154L191.25616,143.60869043285888L191.35514666666666,145.74019667049305L191.85008000000002,149.26513633226298L191.94906666666665,147.24402779711613L192.0480533333333,141.89528910924446L192.24602666666667,134.94481032301294L192.444,136.47699543286583L192.54298666666668,137.05325150887612L192.74096,137.30838736772802L192.93893333333335,142.34190460469665L193.2358933333333,145.7697974564215L193.43386666666666,148.13075090482766L193.53285333333332,150.5894324598444L193.63183999999998,147.10653240071133L193.73082666666667,148.7774465650051L194.32474666666667,148.84145034978076L194.72069333333332,149.7407252985359L194.81967999999998,146.4549073137984L194.91866666666667,148.85898092475585L195.01765333333333,149.49880644037376L195.51258666666666,151.293756492731L196.30447999999998,151.61341738385326L196.40346666666667,153.1774320262703L196.79941333333335,152.15460462092466L196.99738666666667,151.37261712047737L197.29434666666666,152.45040666061428L197.39333333333332,152.46922566640143L197.49231999999998,153.76858964899748L197.59130666666667,153.81679039994978L197.78928,148.44745620630064L197.88826666666668,146.44920074959273L198.18522666666667,142.84886624998202L198.68016,138.26139282294287L198.77914666666666,132.39552729421848L198.97711999999999,136.9669158333182L199.27408,141.59331372895045L199.96698666666666,145.1005701049351L200.06597333333332,148.78426911346486L200.16495999999998,150.9880162604484L200.46192,151.28757368893062L200.85786666666667,152.65181718754607L200.95685333333336,151.71625355382736L201.05584000000002,152.94138824901782L201.3528,148.5889062692793L201.45178666666666,147.89981663698927L201.64976,148.7032350416751L201.84773333333334,148.13670495766664L202.04570666666666,149.50558651219765L202.4416533333333,145.43353397241535L202.63962666666666,148.75750234978L203.23354666666665,149.1919562022375L203.43152,149.95102881000994L203.82746666666665,141.7912714857796L204.3224,142.3648721305258L204.71834666666666,144.68968671714717L205.01530666666667,146.4988296195106L205.1142933333333,148.8723885573398L205.31226666666666,146.1086692017423L205.41125333333332,149.34381967817205L205.60922666666667,144.02898266661117L205.70821333333333,145.25448026214266L205.8072,144.3521796095894L206.00517333333335,143.55836201491024L206.10416,143.17269047943176L206.20314666666667,144.714814682723L206.89605333333333,147.9573249016637L206.99504,149.9999223124915L207.09402666666668,150.24809879265734L207.19301333333334,152.20936844057798L207.48997333333335,151.73558465132743L208.38085333333333,150.70047811290672L208.7768,149.7104689328408L208.87578666666667,150.89646342480125L208.97477333333333,152.5207145666661L209.07376000000002,150.2071198466225L209.46970666666667,149.7704534792404L209.56869333333333,150.55703602020583L209.76666666666668,149.52731301504429L209.86565333333334,149.01951562496674L210.06362666666666,150.22945423692963L210.36058666666668,150.29520016056597L210.65754666666666,147.64199326805922L210.75653333333332,146.21188731437337L210.95450666666667,148.65491428088032L211.15248,146.58662134518391L211.35045333333335,149.22928194740243L211.84538666666666,148.41996872399454L212.24133333333333,149.3065995149809L212.53829333333334,149.32076030158441L212.93424000000002,151.74358374997587L213.1322133333333,152.14869545761601L213.2312,151.1489987964535L213.33018666666666,147.57819888280818L213.62714666666668,144.51659161251072L214.12208,146.6085737419205L214.71599999999998,148.8540895021658L214.81498666666667,151.52183529725784L214.91397333333333,150.65637341179755L215.21093333333334,149.7422607563958L215.50789333333336,150.28121154250493L215.8048533333333,151.75025442045367L215.90384,152.06208007314845L216.29978666666668,152.83172067239582L216.39877333333334,152.91161402408736L216.49776,152.8754045064823L216.79472,153.59804280265539L216.9926933333333,153.48791659068414L217.28965333333332,153.54482241007676L217.38863999999998,153.49482099037976L217.58661333333333,153.84023827099676L217.88357333333335,153.4778885652925L218.27952000000002,153.79771505612328L218.37850666666665,152.33906598990623L218.4774933333333,153.32154858608686L218.57648,152.76536512022454L218.67546666666667,152.85885555922857L218.87344,154.02825908638053L218.97242666666668,153.79135525429638L219.07141333333334,153.06666774741535L219.1704,151.9651638897489L219.76432,149.8220076716734L219.96229333333332,143.2543685850486L220.16026666666667,144.27836700063853L220.25925333333333,145.2487655561626L220.35824,147.1190772686008L220.45722666666666,147.82053727025138L220.55621333333335,149.3223587751702L220.75418666666667,150.19756017643468L220.95216000000002,150.52202681741977L221.05114666666665,152.58732520605244L221.34810666666667,150.22766760398923L221.44709333333333,150.66954631323694L221.74405333333334,151.14827348940256L223.82277333333332,149.83674536861045L223.92176,151.11462884181614L224.31770666666668,151.54477742854715L224.41669333333334,151.54395711930425L224.51568,153.29110179122478L224.71365333333335,152.17102471109848L224.81264000000002,152.70290551352656L225.0106133333333,153.58516119363617L225.30757333333332,154.34753317858406L225.40655999999998,154.15121076685836L225.60453333333334,152.83596252745343L225.70352,153.36077766462103L225.80250666666666,151.1577762328946L226.1984533333333,151.63539276554908L226.29744,151.67599959199103L226.49541333333332,152.03047230962687L226.5944,152.00366510519197L226.89136,152.47950820340725L227.08933333333334,152.98508688837515L227.58426666666665,152.9389068513201L227.6832533333333,151.95970774715568L227.78224,153.42404287949458L227.88122666666666,153.07282602399468L228.8710933333333,151.25685984335635L228.97008,149.02807998682434L229.16805333333332,150.80419354540604L229.564,151.9734252181527L229.95994666666667,152.4290005113626L230.05893333333336,153.47260057842402L230.55386666666666,151.45788732348373L230.75184,151.40120526951193L230.85082666666668,151.45781382388313L231.0488,152.77985215291696L231.14778666666666,148.51787487873082L231.24677333333335,148.93167043116694L231.64272,150.64925653254826L231.74170666666666,152.48889910246797L231.84069333333332,148.20737636833005L231.93967999999998,144.49278970427662L232.13765333333333,148.76912812110555L232.43461333333335,148.933549945617L232.5336,150.39147539722416L232.63258666666667,151.71284857840018L232.73157333333336,146.71905519418144L233.0285333333333,147.92357901550125L233.12752,143.48752888180164L233.52346666666668,142.84539025388568L233.62245333333334,142.21414274941057L234.0184,146.87117650935426L234.11738666666668,148.9210333758718L234.31536,150.25451103337997L234.41434666666666,151.9219431811963L234.51333333333332,151.38836556303687L234.71130666666667,151.54072902132708L234.81029333333333,152.18880080224494L235.50320000000002,152.16986259582671L235.60218666666665,151.88664507713824L235.70117333333332,152.1050778319164L235.99813333333333,148.47548266772228L236.39408,149.22987146819816L236.988,149.83785005488022L237.08698666666666,150.39681853124134L237.48293333333334,151.43772760583866L237.58192,150.1139826106445L237.97786666666667,150.55602642385296L238.07685333333336,150.7112162987587L238.17584,151.1085479610734L238.27482666666666,149.65109186979478L238.96773333333334,151.7411278738411L239.36368000000002,152.0177675099381L239.5616533333333,150.74680566421037L239.66064,151.60241037495555L240.35354666666666,152.89897322609417L240.55152,152.14287464721545L240.7494933333333,153.15205201167356L240.94746666666666,147.27835828219943L241.4424,149.3206877459754L241.93733333333336,149.54928483164508L242.13530666666665,151.3822981717143L242.2342933333333,151.271705632543L242.33328,151.16651409108474L242.63024,150.74092678461798L242.9272,152.32382904495847L243.12517333333335,151.6165525650255L243.22416,152.20193178593024L243.4221333333333,153.3104684587652L243.52112,151.9237358676286L243.62010666666666,151.8943143466159L244.11504,152.10320651818125L244.21402666666668,152.22854182112047L244.31301333333334,152.8280341835814L244.51098666666667,154.06154802979106L244.70896000000002,149.72703805693268L245.30288,146.66676779487517L245.59984,148.22231581497553L245.8968,151.4146256797812L246.19376,152.17786631695964L246.39173333333332,153.19246502249777L247.3816,152.27366083168047L247.67856,151.89066937443L247.77754666666667,151.7903283047894L248.37146666666666,152.84343354404194L248.56944000000001,153.31995076390965L248.66842666666665,154.1689889117704L249.36133333333333,152.5100472999209L249.55930666666669,152.78333752024463L249.95525333333336,153.79523857948521L250.05424,151.7550336617181L250.45018666666667,148.95156614540622L251.04410666666666,147.94912150542555L251.14309333333335,147.613036440853L251.24208000000002,149.3790950856144L251.93498666666667,150.4063658953628L252.42992,151.9418557033221L252.52890666666667,152.6042407441035L252.62789333333336,153.4871263140269L252.82586666666666,153.66733040794517L253.02384,153.04403460840348L253.41978666666668,151.40140317581978L253.51877333333334,151.8527693263681L253.81573333333336,151.7611166351053L254.31066666666666,152.67703349396936L254.90458666666666,152.28156540277809L255.10256,153.17701182079063L255.39952,153.15762534836702L255.89445333333333,152.3369019385346L256.09242666666665,152.93835914740697L256.19141333333334,150.59363327519847L256.2904,149.94410689216542L256.48837333333336,148.7841374057849L256.58736,150.18531858488382L256.6863466666667,147.5113368030077L256.9833066666667,149.79705635565273L257.0822933333333,151.93874297837522L257.18127999999996,152.08455480385973L257.57722666666666,152.1267330057733L257.7752,150.22963975408098L258.07216,152.2177110264099L258.36912,152.7632810625345L258.66607999999997,144.98029536703507L258.96304,144.10352252661755L259.16101333333336,140.98189503785437L259.6559466666667,146.28717318881704L260.24986666666666,148.19521325111427L260.7448,148.1555282469665L260.9427733333333,149.58808088084146L261.1407466666667,151.36026690785502L261.23973333333333,152.49477830183972L261.33871999999997,153.3696670798698L261.43770666666666,154.03052764410663L261.53669333333335,153.29431670992145L261.63568,153.57753552988132L261.93264,153.669794168659L262.62554666666665,154.68311269199128L262.92250666666666,154.45612201250037L263.02149333333335,155.30378244655827L263.3184533333333,152.66663285738366L263.7144,153.23328897817976L264.60528,153.3596827000404L264.90224,153.05362792529988L265.29818666666665,154.4687588696597L265.39717333333334,154.21747330608204L265.59514666666666,154.42270209139292L265.69413333333335,154.76591218861816L265.8921066666667,155.20485620654802" style="fill: none;" fill="none"></path></g></g></g></g><g opacity="0.2"><g><g><g><path stroke="rgb(255, 112, 67)" stroke-width="2px" d="M24.562613333333335,14.563636363636359L24.6616,14.563636363636359L25.25552,14.563636363636359L25.651466666666664,14.563636363636359L25.750453333333333,14.563636363636359L26.047413333333335,14.563636363636359L26.1464,14.563636363636359L26.24538666666667,14.563636363636359L26.443360000000002,14.563636363636359L26.542346666666667,14.563636363636359L26.839306666666666,14.563636363636359L26.93829333333333,14.563636363636359L27.532213333333335,14.563636363636359L28.027146666666667,14.563636363636359L28.22512,14.563636363636359L28.91802666666667,14.563636363636359L29.017013333333335,14.563636363636359L29.116,14.563636363636359L29.313973333333333,14.563636363636359L29.61093333333333,14.563636363636359L29.90789333333333,14.563636363636359L30.204853333333336,14.563636363636359L30.30384,14.563636363636359L30.40282666666667,14.563636363636359L30.501813333333335,14.563636363636359L30.699786666666668,14.563636363636359L30.798773333333333,14.563636363636359L30.89776,14.563636363636359L30.996746666666667,14.563636363636359L31.19472,14.563636363636359L31.293706666666665,14.563636363636359L31.88762666666667,14.563636363636359L32.0856,14.563636363636359L32.18458666666667,14.563636363636359L32.38256,14.563636363636359L32.67952,14.563636363636359L33.07546666666667,14.563636363636359L34.065333333333335,14.741637351296175L34.16432,14.741637351296175L34.461279999999995,14.563636363636359L34.75824,14.563636363636359L34.85722666666667,14.563636363636359L35.0552,14.563636363636359L35.748106666666665,14.563636363636359L36.24304,14.563636363636359L36.63898666666667,15.469814231178983L36.737973333333336,15.469814231178983L36.935946666666666,15.146182805841617L37.133919999999996,15.16236808083274L37.232906666666665,15.16236808083274L37.72784,17.16891007856889L37.82682666666666,17.16891007856889L38.519733333333335,16.92618033669212L38.71770666666667,15.324183793501414L38.81669333333333,15.324183793501414L39.11365333333333,14.563636363636359L39.80656,14.563636363636359L40.103519999999996,14.563636363636359L40.30149333333333,14.563636363636359L40.49946666666666,14.563636363636359L41.09338666666667,14.563636363636359L41.192373333333336,14.563636363636359L41.291360000000005,14.563636363636359L41.58832,14.563636363636359L41.68730666666667,14.563636363636359L41.78629333333333,14.563636363636359L42.18224,14.563636363636359L42.4792,14.563636363636359L42.57818666666667,14.563636363636359L42.677173333333336,14.563636363636359L43.073119999999996,14.563636363636359L43.172106666666664,14.563636363636359L43.27109333333333,14.563636363636359L43.56805333333333,14.563636363636359L43.964000000000006,14.563636363636359L44.260960000000004,14.563636363636359L44.359946666666666,14.563636363636359L44.458933333333334,14.563636363636359L44.55792,14.563636363636359L44.75589333333333,14.563636363636359L44.95386666666667,14.563636363636359L45.15184,14.563636363636359L45.34981333333333,14.563636363636359L45.54778666666667,14.563636363636359L45.646773333333336,14.563636363636359L45.943733333333334,14.563636363636359L46.042719999999996,14.563636363636359L46.141706666666664,14.563636363636359L46.24069333333333,14.563636363636359L46.43866666666666,14.563636363636359L46.933600000000006,14.563636363636359L47.72549333333333,14.563636363636359L47.92346666666667,14.563636363636359L48.12144,14.563636363636359L48.4184,14.563636363636359L48.51738666666667,14.563636363636359L48.616373333333335,14.563636363636359L49.309279999999994,14.563636363636359L49.40826666666666,14.563636363636359L49.80421333333334,14.563636363636359L49.903200000000005,14.563636363636359L50.00218666666667,14.563636363636359L50.200160000000004,14.563636363636359L50.99205333333333,14.563636363636359L51.09104,14.563636363636359L51.388,14.563636363636359L51.585973333333335,14.563636363636359L51.783946666666665,14.563636363636359L51.981919999999995,14.96818181818182L52.17989333333333,14.96818181818182L52.278879999999994,14.96818181818182L52.47685333333334,14.563636363636359L52.67482666666667,14.563636363636359L52.77381333333334,14.563636363636359L52.97178666666667,14.563636363636359L53.46672,14.563636363636359L53.56570666666667,14.563636363636359L53.66469333333333,14.563636363636359L53.76368,14.563636363636359L54.55557333333333,14.563636363636359L54.753546666666665,14.563636363636359L54.852533333333334,14.563636363636359L55.14949333333333,14.563636363636359L55.545440000000006,14.563636363636359L55.743413333333336,14.563636363636359L55.842400000000005,14.563636363636359L56.13936,14.563636363636359L56.33733333333333,14.563636363636359L56.83226666666667,14.563636363636359L57.03024,14.563636363636359L57.12922666666667,14.563636363636359L57.624159999999996,14.563636363636359L57.723146666666665,14.563636363636359L57.921119999999995,14.563636363636359L58.21808,14.563636363636359L58.41605333333334,14.563636363636359L58.515040000000006,14.563636363636359L58.910986666666666,14.563636363636359L59.10896,14.563636363636359L59.207946666666665,14.563636363636359L59.30693333333333,14.563636363636359L59.70288,14.563636363636359L60.09882666666667,14.563636363636359L60.19781333333333,14.563636363636359L60.2968,14.563636363636359L60.395786666666666,14.563636363636359L60.49477333333333,14.563636363636359L60.593759999999996,14.563636363636359L61.28666666666667,14.838724309747874L61.58362666666667,14.838724309747874L61.682613333333336,14.838724309747874L62.47450666666667,14.563636363636359L62.87045333333333,14.563636363636359L62.96944,14.563636363636359L63.06842666666667,14.563636363636359L63.16741333333333,14.790180830522024L63.2664,14.790180830522024L63.563359999999996,14.790180830522024L64.05829333333334,14.563636363636359L64.25626666666668,14.563636363636359L64.65221333333334,14.563636363636359L64.7512,14.563636363636359L65.14714666666667,14.951996543190697L65.24613333333333,14.951996543190697L65.34512,14.563636363636359L65.64207999999999,15.25945503928444L65.93903999999999,16.068545948375363L66.03802666666667,16.036187744140616L66.33498666666667,14.676908597079182L66.43397333333333,14.676908597079182L66.82992,14.563636363636359L67.32485333333334,14.563636363636359L67.42384,14.563636363636359L67.52282666666667,14.563636363636359L67.7208,14.563636363636359L67.81978666666667,14.563636363636359L67.91877333333333,14.563636363636359L68.11674666666667,14.563636363636359L68.21573333333333,14.563636363636359L68.31472,15.194726285067468L68.41370666666667,15.194726285067468L68.80965333333333,14.563636363636359L69.00762666666667,14.563636363636359L69.10661333333333,14.563636363636359L69.2056,14.563636363636359L69.40357333333333,14.563636363636359L69.60154666666666,14.563636363636359L69.79952,14.563636363636359L69.89850666666668,14.563636363636359L70.29445333333334,14.563636363636359L70.39344,14.563636363636359L70.59141333333334,14.676908597079182L70.78938666666667,14.676908597079182L71.18533333333333,14.563636363636359L71.28432,14.563636363636359L71.58127999999999,14.563636363636359L71.68026666666667,14.563636363636359L71.77925333333333,14.563636363636359L71.87823999999999,14.563636363636359L72.07621333333333,14.563636363636359L72.1752,14.563636363636359L72.47216,14.563636363636359L72.57114666666666,14.563636363636359L72.67013333333334,14.563636363636359L72.86810666666668,14.563636363636359L73.16506666666666,14.563636363636359L73.56101333333332,14.563636363636359L73.95696,14.563636363636359L74.05594666666667,14.563636363636359L74.35290666666667,14.563636363636359L74.64986666666667,14.563636363636359L74.74885333333334,14.563636363636359L74.84783999999999,14.563636363636359L74.94682666666667,14.563636363636359L75.04581333333333,14.563636363636359L75.1448,14.563636363636359L75.44176,14.871094859730121L75.54074666666666,14.871094859730121L75.63973333333333,14.871094859730121L75.73872,14.871094859730121L76.03568,14.563636363636359L76.72858666666667,14.563636363636359L77.02554666666667,14.563636363636359L77.12453333333333,14.563636363636359L77.32250666666667,14.563636363636359L77.42149333333334,14.563636363636359L77.52047999999999,14.563636363636359L77.71845333333333,14.563636363636359L77.91642666666667,14.563636363636359L78.1144,14.563636363636359L78.31237333333333,14.563636363636359L78.41136,14.563636363636359L78.70832,14.563636363636359L78.90629333333332,14.563636363636359L79.20325333333334,14.563636363636359L79.30224,15.793458002263847L79.89616000000001,14.563636363636359L79.99514666666667,14.563636363636359L80.09413333333335,14.563636363636359L80.49008,14.563636363636359L80.78703999999999,14.563636363636359L80.98501333333333,14.563636363636359L81.28197333333334,16.311275690252135L81.67792,18.10745849609376L82.07386666666667,17.16891007856889L82.17285333333332,17.26599703702059L82.27184,15.906730235706672L82.46981333333333,17.023267295143818L82.66778666666667,20.405273714932527L82.76677333333335,23.609266801313918L82.86576,26.360183299671515L83.06373333333333,29.612732211026277L83.26170666666667,30.27618033669211L83.36069333333334,30.049635869806465L83.45967999999999,31.586903658780177L83.55866666666667,34.49963586980647L83.85562666666667,37.638912547718384L83.95461333333334,37.428541010076344L84.44954666666666,37.84927173961293L84.64752,41.7329105723988L84.94448,35.90745849609375L85.04346666666666,34.56436462402344L85.24144,33.78763191916727L85.43941333333332,34.709995061700994L85.63738666666667,36.91072332208806L85.83536000000001,31.975276184082034L85.93434666666667,30.40563784512606L86.23130666666667,24.288912547718393L86.42928,17.57345553311435L86.52826666666667,15.825816206498576L86.92421333333333,14.935823613947093L87.32016,14.563636363636359L87.61712,16.262732211026282L87.71610666666666,16.262732211026282L87.81509333333334,16.262732211026282L87.91408,16.262732211026282L88.01306666666667,16.44073319868608L88.50800000000001,15.631642289595174L88.70597333333335,20.259630931507456L88.80496,22.428000987659797L88.90394666666667,27.298731717196386L89.00293333333333,31.26327223344283L89.10192,34.693822132457385L89.39887999999999,32.75199654319069L89.59685333333333,37.428541010076344L90.28976,34.25690612792968L90.58672,30.648367587002845L91.08165333333334,30.988184287331315L91.18064,29.887820157137792L91.27962666666667,31.10145652077414L91.57658666666667,37.62272727272726L91.77456000000001,34.693822132457385L91.87354666666667,36.360547429865065L91.97253333333335,37.39618280584162L92.26949333333333,42.94654693603516L92.76442666666667,35.9560019753196L92.9624,29.386187744140628L93.16037333333334,38.54509041526101L93.25936,43.44817934903231L93.45733333333332,41.522551380504254L93.75429333333334,33.755273714932535L93.85328,39.35418132435191L94.05125333333332,37.71981423117899L94.44720000000001,38.07581620649857L94.54618666666667,40.84290563409978L94.74416,42.299271739612934L95.04112,47.05673023570668L95.23909333333334,41.40926680131391L95.53605333333333,37.55799851851029L95.63504,39.855813737349074L95.83301333333334,42.703817194158376L96.03098666666666,45.14727519642223L96.12997333333333,47.00818675648083L96.32794666666666,49.98563537597656L96.42693333333334,47.39654693603515L96.62490666666667,48.20563784512607L96.72389333333332,45.470906621759596L96.82288,49.54873171719638L97.31781333333333,45.24436215487393L97.71376000000001,34.72618033669212L97.81274666666667,34.79090909090909L97.91173333333334,34.15981916947798L99.00058666666666,41.473995555530884L99.09957333333334,36.95926680131393L99.29754666666666,37.541813243519165L99.89146666666667,50.3739955555309L99.99045333333333,48.642541503906244L100.28741333333333,38.78782015713778L100.38640000000001,38.917277665571724L100.68336,37.088724309747874L100.98032,36.03690365878018L101.07930666666667,45.470906621759596L101.27727999999999,42.105085476961996L101.37626666666667,42.94654693603516L101.47525333333333,33.043269764293335L101.57424,33.253641301935374L101.67322666666666,31.004369562322438L102.26714666666666,30.85872677889737L102.56410666666666,58.93417885520241L103.356,37.31526877663352L103.85093333333334,46.797815218838785L103.94991999999999,47.526004444469116L104.04890666666667,43.44817934903231L104.14789333333333,42.65527371493253L104.44485333333334,69.1610874522816L105.23674666666666,67.23545948375356L105.33573333333332,63.901996543190705L105.53370666666666,60.50381719415837L105.73168000000001,64.41981423117899L106.12762666666667,58.82090662175959L106.22661333333333,57.44545454545455L106.62256,60.08308646462181L106.72154666666667,66.08653952858664L106.91952,62.20291304154829L107.01850666666667,60.730361661044036L107.11749333333334,62.59127322110263L107.31546666666667,61.97636857466265L107.41445333333333,64.7920014814897L107.71141333333334,61.507094365900215L107.90938666666666,70.3261803366921L108.40432,74.90563784512605L108.50330666666666,76.07072455666281L108.80026666666667,73.25508547696201L109.09722666666667,71.62073072953658L109.39418666666667,73.36835771040482L109.59216,68.04455039284446L109.88911999999999,69.45236067338423L109.98810666666667,71.76636116721414L110.38405333333334,64.03145405162465L110.48303999999999,68.0769085970792L111.76986666666667,70.71454051624644L111.86885333333333,78.44945380470969L111.96784,76.42672653198242L112.16581333333333,63.25472134676847L112.36378666666667,66.32926927046341L112.56175999999999,74.5334567676891L112.85872,65.19654693603516L113.05669333333334,71.83108992143111L113.15567999999999,78.06109362515535L113.45264,66.62054249156606L113.55162666666666,67.7209066217596L113.74959999999999,72.64018083052201L114.04656,70.82781274968927L114.14554666666666,72.83436709317293L114.34352000000001,53.22199901234019L114.44250666666666,61.49090909090909L114.73946666666667,62.2190859707919L115.13541333333333,69.30673023570668L115.2344,68.56236808083274L115.43237333333333,63.85345306396485L115.63034666666667,68.67564031427557L116.02629333333333,71.73400296297942L116.12528,68.38436709317293L116.32325333333334,61.507094365900215L116.42223999999999,67.51054742986506L116.52122666666666,73.64345800226384L116.62021333333333,77.98017959594726L116.81818666666666,70.0510923905806L117.21413333333334,75.18072579123758L117.41210666666667,76.50763438831676L117.51109333333333,74.2260044444691L117.80805333333333,68.59472628506748L118.20400000000001,62.397086958451695L118.50095999999999,60.40673023570667L118.79792,62.947275196422225L118.89690666666667,69.75981916947799L119.29285333333333,75.26163364757191L119.49082666666666,79.71163364757192L119.58981333333334,82.85091032548385L119.78778666666666,95.52127075195312L119.98576,93.17491205388849L120.08474666666667,89.71199777776545L120.38170666666666,91.37872924804688L120.87664000000001,88.07763685746627L121.07461333333333,85.00308893377131L121.1736,83.27163488214666L121.37157333333333,93.11018329967152L121.47056,90.03563537597657L121.86650666666667,94.87400172840465L122.26245333333334,90.8609115600586L122.46042666666666,96.62163488214667L122.6584,85.16491081931375L122.85637333333334,101.15254273848099L123.05434666666666,102.5280009876598L123.15333333333334,102.30145652077414L123.45029333333333,93.8383663524281L123.54928000000001,91.75091032548384L123.64826666666667,93.56327223344283L123.84624,88.49836141412908L124.34117333333334,98.69291180697356L124.53914666666667,101.78363883278588L124.73712,100.35963710438122L124.83610666666667,96.4274547923695L124.93509333333334,94.67981546575372L125.43002666666666,103.38563537597656L125.82597333333334,89.95472751964223L126.02394666666667,95.94200148148968L126.12293333333334,97.81909214366567L126.71685333333333,100.81272603815252L126.81584000000001,97.20418132435191L126.91482666666667,98.09418008977717L127.01381333333333,105.05236067338421L127.1128,105.31127569025213L127.50874666666667,104.5183638832786L127.80570666666667,100.86127569025213L128.39962666666668,76.847457261519L128.49861333333334,68.83745602694424L128.79557333333332,78.65981916947798L128.99354666666667,65.7790933782404L129.09253333333334,66.8309140292081L129.19152,58.28690365878018L129.38949333333332,56.13473122336649L129.68645333333333,70.1481793490323L129.88442666666668,66.42636857466263L130.0824,73.56254397305574L130.18138666666667,78.44945380470969L130.28037333333333,86.6536351290616L130.37936,80.29418008977717L130.47834666666668,74.58200024691494L130.5773333333333,69.80836264870383L130.87429333333333,73.65963093150746L130.97328,74.11273221102627L131.17125333333334,59.354909584739L131.27024,65.08327470259232L131.36922666666666,66.70145652077414L131.66618666666668,69.67890514026989L131.76517333333334,70.649824107777L131.86416,67.91509288441051L132.26010666666667,72.72109485973012L132.95301333333333,67.7370918967507L133.15098666666668,72.28417885520243L133.34896,69.79217737371272L133.44794666666667,62.0249120538885L133.54693333333333,59.17690859707918L133.84389333333334,74.8085447138006L134.04186666666666,73.0609115600586L134.23984,66.6529130415483L134.33882666666668,67.41346047141336L134.5368,77.91545701460404L135.03173333333334,60.066913535378205L135.2297066666667,75.84418008977717L135.32869333333332,79.63072579123758L135.62565333333333,77.18727396184748L135.72464,82.78618157126688L135.92261333333332,69.63036166104402L136.0216,70.68218231201172L136.21957333333333,78.40091032548385L136.31856,81.76672529740767L136.5165333333333,87.83490711558949L136.61552,78.51418255892666L136.71450666666667,77.91545701460404L137.01146666666668,88.57927544333718L137.30842666666666,83.38490711558948L137.60538666666667,63.78872430974788L137.70437333333334,60.74654693603516L137.90234666666666,73.80527371493254L138.10032,72.20327717174183L138.19930666666667,77.80218478116123L138.29829333333333,74.84090909090908L138.39728,72.41363636363637L139.09018666666668,56.733450594815345L139.28816,49.27363142533735L139.48613333333333,60.40673023570667L139.78309333333334,69.75981916947799L140.37701333333334,80.6340029629794L140.476,80.5530889337713L140.67397333333332,69.42000246914951L140.77296,67.47817687988281L140.87194666666667,70.09963586980646L141.26789333333332,73.83763191916726L141.46586666666667,75.61763562289153L141.66384,81.55636610551315L141.86181333333332,81.05472751964223L141.9608,78.75690612792968L142.05978666666667,75.58527124578303L142.35674666666668,85.53709189675071L142.4557333333333,87.49509041526102L142.55472,78.83782015713777L142.75269333333333,67.62381966330788L142.85168,67.62381966330788L143.14864,74.6629081032493L143.54458666666667,78.83782015713777L143.64357333333334,73.91854594837535L143.74256,79.59836141412909L143.94053333333332,78.75690612792968L144.33648,89.77672653198242L144.43546666666668,91.1036351290616L144.83141333333333,107.98127198652787L145.32634666666667,105.65109239058063L145.52432000000002,114.30836264870382L145.92026666666666,106.10418132435191L146.21722666666668,108.41818181818182L146.31621333333334,106.88090785633435L146.81114666666667,111.89727519642223L147.00912000000002,104.97145281704988L147.20709333333332,117.54472628506748L147.30607999999998,117.96545701460404L147.40506666666667,110.7645466891202L147.60304,106.47636240178888L147.9,105.66727149269799L147.99898666666667,109.9554557800293L148.09797333333333,109.21109362515537L148.19696000000002,109.89072702581232L148.3949333333333,110.02018453424627L148.59290666666666,112.51217984286221L148.69189333333333,101.52472998879172L148.98885333333334,110.16582114479758L149.08784,107.23690983165395L149.68176000000003,105.42454792369496L150.07770666666667,109.50236067338425L150.57264,120.06909214366567L150.67162666666667,122.44781521883877L150.77061333333333,116.05600197531962L151.16655999999998,123.35399925925513L151.46352,104.25945503928446L151.95845333333335,113.1109115600586L152.25541333333334,102.47945750843394L152.75034666666667,110.81309016834606L152.84933333333333,113.09472628506748L153.14629333333335,121.12090662175959L153.54224000000002,121.62254520763051L153.93818666666667,121.42836511785335L154.43312,132.85272789001465L154.92805333333334,126.80072826038707L155.12602666666666,144.97290933782406L155.42298666666667,136.83345368125222L155.52197333333334,134.17963648709383L155.71994666666666,140.57145590348676L156.41285333333332,137.62636240178887L157.30373333333333,148.96981731761585L157.40272000000002,147.82090970819647L157.6006933333333,131.62290933782404L157.69968000000003,135.23145405162464L157.99663999999999,128.483635746349L158.09562666666667,141.13781707070092L158.2936,140.2316361167214L158.68954666666667,146.15418132435192L158.88752000000002,136.99527248035778L159.28346666666667,147.416364253651L159.38245333333333,151.7530920202082L159.48144,140.32872616161L159.58042666666665,140.47436277216133L159.67941333333334,138.25745540965687L160.07536000000002,144.81109053871847L160.37232,149.39054496071554L160.47130666666666,152.804909584739L160.86725333333334,149.40672714926978L161.36218666666667,144.85963710438122L161.46117333333333,148.88890946128151L161.85711999999998,151.60745540965686L162.15408,145.21563599326393L162.55002666666667,146.99563661055132L163.14394666666666,149.69800037037243L164.43077333333332,149.71418255892667L164.52975999999998,154.0023637598211L164.92570666666666,129.114728754217L165.91557333333333,152.5783635746349L166.01456,144.37418070706454L166.41050666666666,149.84363698092375L166.60848000000001,146.83381781144575L166.70746666666668,151.0249089674516L166.80645333333334,146.39690797979182L166.90544000000003,147.61054434342816L167.20239999999998,134.84309078563342L167.49936,148.5329105723988L167.69733333333335,142.56181879910557L167.89530666666667,150.41000123457476L167.99429333333333,140.31254397305574L168.19226666666668,153.274182250283L168.29125333333332,138.50018206509677L168.39023999999998,141.6879991357977L168.48922666666667,143.33854533108797L168.58821333333333,150.2158180583607L168.6872,145.29654693603516L168.78618666666665,151.0896377216686L168.88517333333334,148.48436400673606L169.08314666666666,152.88581744107333L169.77605333333332,139.30927297418768L170.07301333333334,148.0798185521906L170.172,141.54236252524635L170.36997333333335,149.24490835016425L171.06287999999998,154.11563599326394L171.45882666666665,150.24818243546918L171.6568,149.0183638832786L171.75578666666667,152.59454576318916L172.05274666666668,151.54272665543988L172.1517333333333,153.82436431537974L172.54767999999999,150.53945565657182L172.64666666666668,154.2774547923695L172.74565333333334,150.7012713692405L172.94362666666666,154.60109084736217L173.63653333333332,144.18000061728736L173.73551999999998,150.86309016834605L173.83450666666667,138.38690983165395L174.03248,150.57181694724343L174.23045333333334,152.3841819416393L174.32944,153.95381873737682L175.02234666666666,143.5974541750821L175.51728,146.88236437710847L176.11120000000003,149.63327161615547L176.40815999999998,153.12854563973167L176.50714666666667,154.9732734680176L176.80410666666666,151.05727334456012L177.4970133333333,134.9078195398504L177.79397333333333,149.00218169472436L177.89296,149.66563599326395L177.99194666666668,142.70745540965686L178.88282666666666,151.38090785633435L179.17978666666667,152.28709035353228L179.27877333333333,150.7821823120117L179.47674666666666,151.88254644220527L179.67472,152.86963679573753L179.77370666666667,154.37454483725807L179.87269333333333,149.45527371493253L179.97168000000002,149.40672714926978L180.26863999999998,149.87600135803223L180.46661333333333,151.62363759821113L180.66458666666668,154.81145466891203L180.76357333333334,133.87218107743695L180.86256,141.7689100785689L181.15952000000001,149.21254397305574L181.65445333333332,151.29999999999998L182.14938666666666,149.29345491582697L182.24837333333335,153.29036289561878L182.34736,153.1447278282859L182.74330666666665,154.92472690235485L182.84229333333332,134.19581867564807L182.94127999999998,131.63909152637828L183.73317333333335,151.65599888888272L183.93114666666668,152.9667268406261L184.0301333333333,150.4261803366921L184.22810666666666,153.82436431537974L184.82202666666666,154.6172730359164L185.02,153.22563568462024L185.21797333333333,153.74345491582696L185.31696000000002,144.50363512906162L185.71290666666667,118.07872924804687L186.10885333333334,142.59418317621405L186.30682666666667,152.804909584739L186.60378666666668,149.1316361167214L186.7027733333333,154.42309140292082L187.19770666666668,154.73054526935925L187.29669333333334,152.06054434342818L187.49466666666666,150.83072579123757L187.69264,154.1318181818182L187.79162666666667,151.7530920202082L187.89061333333333,152.6754551627419L187.98960000000002,151.81781768798828L188.18757333333332,154.0023637598211L188.38554666666667,154.9732734680176L188.78149333333334,147.20599888888273L188.97946666666667,149.6170894276012L189.17744000000002,149.1640004938299L189.4744,152.3841819416393L189.57338666666666,154.14800037037242L189.96933333333334,154.06709097081963L190.26629333333335,155.1674551010132L190.46426666666667,109.76127569025213L190.5632533333333,122.22127075195313L190.76122666666666,126.040180830522L191.05818666666667,145.11854594837536L191.15717333333333,145.00527371493254L191.25616,150.23200024691496L191.35514666666666,148.93745602694426L191.85008000000002,154.55254582491787L191.94906666666665,144.21236499439587L192.0480533333333,133.87218107743695L192.24602666666667,124.51909214366566L192.444,138.77527309764514L192.54298666666668,137.9176356228915L192.74096,137.69109115600585L192.93893333333335,149.8921804601496L193.2358933333333,150.9116367340088L193.43386666666666,151.67218107743696L193.53285333333332,154.2774547923695L193.63183999999998,141.88218231201174L193.73082666666667,151.28381781144574L194.32474666666667,148.93745602694426L194.72069333333332,151.0896377216686L194.81967999999998,141.5261803366921L194.91866666666667,152.46509134119205L195.01765333333333,150.4585447138006L195.51258666666666,153.98618157126685L196.30447999999998,152.09290872053668L196.40346666666667,155.5234539898959L196.79941333333335,150.62036351290615L196.99738666666667,150.19963586980649L197.29434666666666,154.06709097081963L197.39333333333332,152.4974541750821L197.49231999999998,155.71763562289152L197.59130666666667,153.88909152637828L197.78928,140.393454915827L197.88826666666668,143.4518175645308L198.18522666666667,137.44836450056596L198.68016,131.38018268238415L198.77914666666666,123.59672900113193L198.97711999999999,143.8239986419678L199.27408,148.5329105723988L199.96698666666666,150.36145466891202L200.06597333333332,154.30981762625953L200.16495999999998,154.29363698092374L200.46192,151.73690983165395L200.85786666666667,154.6981824354692L200.95685333333336,150.3129081032493L201.05584000000002,154.77909029180356L201.3528,142.0601832996715L201.45178666666666,146.86618218855426L201.64976,149.90836264870384L201.84773333333334,147.28690983165393L202.04570666666666,151.55890884399415L202.4416533333333,139.32545516274192L202.63962666666666,153.74345491582696L203.23354666666665,149.84363698092375L203.43152,151.0896377216686L203.82746666666665,129.55163549943404L204.3224,143.22527309764516L204.71834666666666,148.17690859707918L205.01530666666667,149.21254397305574L205.1142933333333,152.43272696408357L205.31226666666666,141.96309016834607L205.41125333333332,154.19654539281672L205.60922666666667,136.0567271492698L205.70821333333333,147.0927266554399L205.8072,142.9987286307595L206.00517333333335,142.36763562289153L206.10416,142.59418317621405L206.20314666666667,147.0280009876598L206.89605333333333,152.8210902300748L206.99504,153.06381842873313L207.09402666666668,150.62036351290615L207.19301333333334,155.15127291245892L207.48997333333335,151.0249089674516L208.38085333333333,149.14781830527565L208.7768,148.22545516274192L208.87578666666667,152.6754551627419L208.97477333333333,154.95709127946333L209.07376000000002,146.73672776655718L209.46970666666667,149.11545392816717L209.56869333333333,151.73690983165395L209.76666666666668,147.98272850730203L209.86565333333334,148.25781953985043L210.06362666666666,152.04436215487394L210.36058666666668,150.39381904602052L210.65754666666666,143.6621829292991L210.75653333333332,144.06672838384455L210.95450666666667,152.31945473064076L211.15248,143.4841819416393L211.35045333333335,153.1932728507302L211.84538666666666,147.20599888888273L212.24133333333333,150.6365457014604L212.53829333333334,149.3420014814897L212.93424000000002,155.37781892256305L213.1322133333333,152.75636301907625L213.2312,149.6494538047097L213.33018666666666,142.2219990123402L213.62714666666668,139.92418070706455L214.12208,149.74654693603517L214.71599999999998,152.22236314253374L214.81498666666667,155.5234539898959L214.91397333333333,149.35818058360707L215.21093333333334,148.37109177329324L215.50789333333336,151.0896377216686L215.8048533333333,153.95381873737682L215.90384,152.52981855219062L216.29978666666668,153.98618157126685L216.39877333333334,153.03145405162465L216.49776,152.8210902300748L216.79472,154.68200024691495L216.9926933333333,153.32272727272726L217.28965333333332,153.6301811391657L217.38863999999998,153.41981886083428L217.58661333333333,154.35836419192228L217.88357333333335,152.93436400673608L218.27952000000002,154.2774547923695L218.37850666666665,150.15109239058063L218.4774933333333,154.79527248035777L218.57648,151.9310899214311L218.67546666666667,152.9990912177346L218.87344,155.78236437710848L218.97242666666668,153.43599950617008L219.07141333333334,151.97963648709384L219.1704,150.3129081032493L219.76432,146.6072733445601L219.96229333333332,133.40290995511143L220.16026666666667,145.81436462402345L220.25925333333333,146.70436338944867L220.35824,149.92454483725808L220.45722666666666,148.87272727272727L220.55621333333335,151.57509103254839L220.75418666666667,151.5103622783314L220.95216000000002,151.00872677889737L221.05114666666665,155.68527278900146L221.34810666666667,146.68818120089443L221.44709333333333,151.3323643771085L221.74405333333334,151.866364253651L223.82277333333332,147.86945318742232L223.92176,153.03145405162465L224.31770666666668,152.19000030864368L224.41669333333334,151.54272665543988L224.51568,155.91181879910556L224.71365333333335,150.4909090909091L224.81264000000002,153.50072671716865L225.0106133333333,154.9085447138006L225.30757333333332,155.49109115600587L225.40655999999998,153.8567271492698L225.60453333333334,150.86309016834605L225.70352,154.14800037037242L225.80250666666666,147.85327408530495L226.1984533333333,152.35181756453082L226.29744,151.73690983165395L226.49541333333332,152.56218138608065L226.5944,151.9634542985396L226.89136,153.1932728507302L227.08933333333334,153.74345491582696L227.58426666666665,152.86963679573753L227.6832533333333,150.4909090909091L227.78224,155.62054557800295L227.88122666666666,152.54600074074486L228.8710933333333,148.5329105723988L228.97008,145.68491020202637L229.16805333333332,153.46836388327858L229.564,153.72727272727272L229.95994666666667,153.1123634511774L230.05893333333336,155.0380006790161L230.55386666666666,148.43581744107334L230.75184,151.31618218855425L230.85082666666668,151.54272665543988L231.0488,154.76290964646773L231.14778666666666,142.1249089674516L231.24677333333335,149.55236375982113L231.64272,153.22563568462024L231.74170666666666,155.24836295734752L231.84069333333332,141.78509226712313L231.93967999999998,138.92090970819646L232.13765333333333,155.18363574634898L232.43461333333335,149.18018268238416L232.5336,152.5783635746349L232.63258666666667,153.69490835016424L232.73157333333336,139.22836511785334L233.0285333333333,149.7303647474809L233.12752,136.83345368125222L233.52346666666668,141.88218231201174L233.62245333333334,141.26727149269797L234.0184,153.8567271492698L234.11738666666668,151.99581867564808L234.31536,152.25472751964222L234.41434666666666,154.42309140292082L234.51333333333332,150.58799913579767L234.71130666666667,151.76927420876243L234.81029333333333,153.1609084736217L235.50320000000002,152.14145528619937L235.60218666666665,151.46181879910554L235.70117333333332,152.43272696408357L235.99813333333333,143.0310899214311L236.39408,150.36145466891202L236.988,150.74981793490323L237.08698666666666,151.23527124578303L237.48293333333334,152.9990912177346L237.58192,148.12836511785332L237.97786666666667,151.21909214366565L238.07685333333336,150.94400111111727L238.17584,151.70454545454547L238.27482666666666,147.46490773287687L238.96773333333334,154.87618187991055L239.36368000000002,152.43272696408357L239.5616533333333,148.8403628956188L239.66064,152.88581744107333L240.35354666666666,154.84381750280207L240.55152,151.00872677889737L240.7494933333333,154.6658180583607L240.94746666666666,138.4678176879883L241.4424,152.3841819416393L241.93733333333336,149.8921804601496L242.13530666666665,154.1318181818182L242.2342933333333,151.10581682378594L242.33328,151.00872677889737L242.63024,150.10254582491788L242.9272,154.6981824354692L243.12517333333335,150.55563784512606L243.22416,153.08000061728737L243.4221333333333,154.9732734680176L243.52112,149.84363698092375L243.62010666666666,151.85018206509676L244.11504,152.41654477552936L244.21402666666668,152.41654477552936L244.31301333333334,153.72727272727272L244.51098666666667,155.91181879910556L244.70896000000002,143.22527309764516L245.30288,142.07636240178888L245.59984,150.55563784512606L245.8968,156.20309047698973L246.19376,153.32272727272726L246.39173333333332,154.714363080805L247.3816,150.89545454545453L247.67856,151.31618218855425L247.77754666666667,151.63981670032848L248.37146666666666,154.42309140292082L248.56944000000001,154.03472659371116L248.66842666666665,155.44254613356156L249.36133333333333,150.02163488214666L249.55930666666669,153.1932728507302L249.95525333333336,155.31309016834606L250.05424,148.69472628506747L250.45018666666667,144.74636487093838L251.04410666666666,146.44545454545454L251.14309333333335,147.10890884399416L251.24208000000002,152.02818305275656L251.93498666666667,151.94727210998533L252.42992,154.24509041526102L252.52890666666667,153.59781830527567L252.62789333333336,154.81145466891203L252.82586666666666,153.93763654882258L253.02384,152.1090909090909L253.41978666666668,148.93745602694426L253.51877333333334,152.52981855219062L253.81573333333336,151.62363759821113L254.31066666666666,154.0509087822654L254.90458666666666,151.68836326599123L255.10256,154.5201814478094L255.39952,153.12854563973167L255.89445333333333,151.10581682378594L256.09242666666665,153.84054496071556L256.19141333333334,147.07654446688565L256.2904,148.96981731761585L256.48837333333336,147.04418317621406L256.58736,152.28709035353228L256.6863466666667,143.50036413019353L256.9833066666667,153.22563568462024L257.0822933333333,155.15127291245892L257.18127999999996,152.30327254208652L257.57722666666666,152.19000030864368L257.7752,147.38399987654253L258.07216,155.19981793490322L258.36912,153.58163611672143L258.66607999999997,133.30581682378593L258.96304,142.7883632659912L259.16101333333336,136.29945380470969L259.6559466666667,154.24509041526102L260.24986666666666,151.05727334456012L260.7448,148.09600074074484L260.9427733333333,151.73690983165395L261.1407466666667,154.01854594837536L261.23973333333333,154.19654539281672L261.33871999999997,154.68200024691495L261.43770666666666,155.02181849046187L261.53669333333335,152.19000030864368L261.63568,154.0023637598211L261.93264,153.80818212682553L262.62554666666665,156.20309047698973L262.92250666666666,154.11563599326394L263.02149333333335,156.57527309764515L263.3184533333333,148.7109084736217L263.7144,154.0832731593739L264.60528,153.54927328283136L264.90224,152.59454576318916L265.29818666666665,156.5914552861994L265.39717333333334,153.84054496071556L265.59514666666666,154.73054526935925L265.69413333333335,155.280727334456L265.8921066666667,155.8632722334428" style="fill: none;" fill="none"></path></g></g></g></g></g></g><g transform="translate(40, 178)" clip-path="url(#clip_1)"><clipPath id="clip_1"><rect width="290" height="22"></rect></clipPath><g><g><line x1="0" y1="0" x2="0" y2="5" style="visibility: inherit;" fill="rgb(0, 0, 0)" stroke="rgb(204, 204, 204)" stroke-width="1px"></line><line x1="24.166666666666664" y1="0" x2="24.166666666666664" y2="5" style="visibility: inherit;" fill="rgb(0, 0, 0)" stroke="rgb(204, 204, 204)" stroke-width="1px"></line><line x1="48.33333333333333" y1="0" x2="48.33333333333333" y2="5" style="visibility: inherit;" fill="rgb(0, 0, 0)" stroke="rgb(204, 204, 204)" stroke-width="1px"></line><line x1="72.5" y1="0" x2="72.5" y2="5" style="visibility: inherit;" fill="rgb(0, 0, 0)" stroke="rgb(204, 204, 204)" stroke-width="1px"></line><line x1="96.66666666666666" y1="0" x2="96.66666666666666" y2="5" style="visibility: inherit;" fill="rgb(0, 0, 0)" stroke="rgb(204, 204, 204)" stroke-width="1px"></line><line x1="120.83333333333334" y1="0" x2="120.83333333333334" y2="5" style="visibility: inherit;" fill="rgb(0, 0, 0)" stroke="rgb(204, 204, 204)" stroke-width="1px"></line><line x1="145" y1="0" x2="145" y2="5" style="visibility: inherit;" fill="rgb(0, 0, 0)" stroke="rgb(204, 204, 204)" stroke-width="1px"></line><line x1="169.16666666666669" y1="0" x2="169.16666666666669" y2="5" style="visibility: inherit;" fill="rgb(0, 0, 0)" stroke="rgb(204, 204, 204)" stroke-width="1px"></line><line x1="193.33333333333331" y1="0" x2="193.33333333333331" y2="5" style="visibility: inherit;" fill="rgb(0, 0, 0)" stroke="rgb(204, 204, 204)" stroke-width="1px"></line><line x1="217.5" y1="0" x2="217.5" y2="5" style="visibility: inherit;" fill="rgb(0, 0, 0)" stroke="rgb(204, 204, 204)" stroke-width="1px"></line><line x1="241.66666666666669" y1="0" x2="241.66666666666669" y2="5" style="visibility: inherit;" fill="rgb(0, 0, 0)" stroke="rgb(204, 204, 204)" stroke-width="1px"></line><line x1="265.8333333333333" y1="0" x2="265.8333333333333" y2="5" style="visibility: inherit;" fill="rgb(0, 0, 0)" stroke="rgb(204, 204, 204)" stroke-width="1px"></line><line x1="290" y1="0" x2="290" y2="5" style="visibility: inherit;" fill="rgb(0, 0, 0)" stroke="rgb(204, 204, 204)" stroke-width="1px"></line></g><g transform="translate(0, 8)"><text x="0" y="0" dx="0em" dy="0.95em" style="text-anchor: middle; visibility: hidden; font-family: Roboto, sans-serif; font-size: 12px; font-weight: 200;" fill="rgb(50, 49, 63)" stroke="none" stroke-width="1px">-500k</text><text x="24.166666666666664" y="0" dx="0em" dy="0.95em" style="text-anchor: middle; visibility: inherit; font-family: Roboto, sans-serif; font-size: 12px; font-weight: 200;" fill="rgb(50, 49, 63)" stroke="none" stroke-width="1px">0</text><text x="48.33333333333333" y="0" dx="0em" dy="0.95em" style="text-anchor: middle; visibility: hidden; font-family: Roboto, sans-serif; font-size: 12px; font-weight: 200;" fill="rgb(50, 49, 63)" stroke="none" stroke-width="1px">500k</text><text x="72.5" y="0" dx="0em" dy="0.95em" style="text-anchor: middle; visibility: inherit; font-family: Roboto, sans-serif; font-size: 12px; font-weight: 200;" fill="rgb(50, 49, 63)" stroke="none" stroke-width="1px">1M</text><text x="96.66666666666666" y="0" dx="0em" dy="0.95em" style="text-anchor: middle; visibility: hidden; font-family: Roboto, sans-serif; font-size: 12px; font-weight: 200;" fill="rgb(50, 49, 63)" stroke="none" stroke-width="1px">1.5M</text><text x="120.83333333333334" y="0" dx="0em" dy="0.95em" style="text-anchor: middle; visibility: inherit; font-family: Roboto, sans-serif; font-size: 12px; font-weight: 200;" fill="rgb(50, 49, 63)" stroke="none" stroke-width="1px">2M</text><text x="145" y="0" dx="0em" dy="0.95em" style="text-anchor: middle; visibility: hidden; font-family: Roboto, sans-serif; font-size: 12px; font-weight: 200;" fill="rgb(50, 49, 63)" stroke="none" stroke-width="1px">2.5M</text><text x="169.16666666666669" y="0" dx="0em" dy="0.95em" style="text-anchor: middle; visibility: inherit; font-family: Roboto, sans-serif; font-size: 12px; font-weight: 200;" fill="rgb(50, 49, 63)" stroke="none" stroke-width="1px">3M</text><text x="193.33333333333331" y="0" dx="0em" dy="0.95em" style="text-anchor: middle; visibility: hidden; font-family: Roboto, sans-serif; font-size: 12px; font-weight: 200;" fill="rgb(50, 49, 63)" stroke="none" stroke-width="1px">3.5M</text><text x="217.5" y="0" dx="0em" dy="0.95em" style="text-anchor: middle; visibility: inherit; font-family: Roboto, sans-serif; font-size: 12px; font-weight: 200;" fill="rgb(50, 49, 63)" stroke="none" stroke-width="1px">4M</text><text x="241.66666666666669" y="0" dx="0em" dy="0.95em" style="text-anchor: middle; visibility: hidden; font-family: Roboto, sans-serif; font-size: 12px; font-weight: 200;" fill="rgb(50, 49, 63)" stroke="none" stroke-width="1px">4.5M</text><text x="265.8333333333333" y="0" dx="0em" dy="0.95em" style="text-anchor: middle; visibility: inherit; font-family: Roboto, sans-serif; font-size: 12px; font-weight: 200;" fill="rgb(50, 49, 63)" stroke="none" stroke-width="1px">5M</text><text x="290" y="0" dx="0em" dy="0.95em" style="text-anchor: middle; visibility: hidden; font-family: Roboto, sans-serif; font-size: 12px; font-weight: 200;" fill="rgb(50, 49, 63)" stroke="none" stroke-width="1px">5.5M</text></g><line x1="0" y1="0" x2="290" y2="0" fill="rgb(0, 0, 0)" stroke="rgb(204, 204, 204)" stroke-width="1px"></line></g></g></g></g></svg>