<svg viewBox="0 0 330 200" xmlns="http://www.w3.org/2000/svg"><g><g><g><g><g><line x1="50" y1="178" x2="45" y2="178" style="visibility: inherit;" fill="rgb(0, 0, 0)" stroke="rgb(204, 204, 204)" stroke-width="1px"></line><line x1="50" y1="163.16666666666669" x2="45" y2="163.16666666666669" style="visibility: inherit;" fill="rgb(0, 0, 0)" stroke="rgb(204, 204, 204)" stroke-width="1px"></line><line x1="50" y1="148.33333333333334" x2="45" y2="148.33333333333334" style="visibility: inherit;" fill="rgb(0, 0, 0)" stroke="rgb(204, 204, 204)" stroke-width="1px"></line><line x1="50" y1="133.5" x2="45" y2="133.5" style="visibility: inherit;" fill="rgb(0, 0, 0)" stroke="rgb(204, 204, 204)" stroke-width="1px"></line><line x1="50" y1="118.66666666666669" x2="45" y2="118.66666666666669" style="visibility: inherit;" fill="rgb(0, 0, 0)" stroke="rgb(204, 204, 204)" stroke-width="1px"></line><line x1="50" y1="103.83333333333331" x2="45" y2="103.83333333333331" style="visibility: inherit;" fill="rgb(0, 0, 0)" stroke="rgb(204, 204, 204)" stroke-width="1px"></line><line x1="50" y1="89" x2="45" y2="89" style="visibility: inherit;" fill="rgb(0, 0, 0)" stroke="rgb(204, 204, 204)" stroke-width="1px"></line><line x1="50" y1="74.16666666666666" x2="45" y2="74.16666666666666" style="visibility: inherit;" fill="rgb(0, 0, 0)" stroke="rgb(204, 204, 204)" stroke-width="1px"></line><line x1="50" y1="59.33333333333332" x2="45" y2="59.33333333333332" style="visibility: inherit;" fill="rgb(0, 0, 0)" stroke="rgb(204, 204, 204)" stroke-width="1px"></line><line x1="50" y1="44.5" x2="45" y2="44.5" style="visibility: inherit;" fill="rgb(0, 0, 0)" stroke="rgb(204, 204, 204)" stroke-width="1px"></line><line x1="50" y1="29.66666666666666" x2="45" y2="29.66666666666666" style="visibility: inherit;" fill="rgb(0, 0, 0)" stroke="rgb(204, 204, 204)" stroke-width="1px"></line><line x1="50" y1="14.83333333333332" x2="45" y2="14.83333333333332" style="visibility: inherit;" fill="rgb(0, 0, 0)" stroke="rgb(204, 204, 204)" stroke-width="1px"></line><line x1="50" y1="0" x2="45" y2="0" style="visibility: inherit;" fill="rgb(0, 0, 0)" stroke="rgb(204, 204, 204)" stroke-width="1px"></line></g><g transform="translate(40, 0)"><text x="0" y="178" dx="0em" dy="0.3em" style="text-anchor: end; visibility: hidden; font-family: Roboto, sans-serif; font-size: 12px; font-weight: 200;" fill="rgb(50, 49, 63)" stroke="none" stroke-width="1px">-1.2</text><text x="0" y="163.16666666666669" dx="0em" dy="0.3em" style="text-anchor: end; visibility: inherit; font-family: Roboto, sans-serif; font-size: 12px; font-weight: 200;" fill="rgb(50, 49, 63)" stroke="none" stroke-width="1px">-1</text><text x="0" y="148.33333333333334" dx="0em" dy="0.3em" style="text-anchor: end; visibility: hidden; font-family: Roboto, sans-serif; font-size: 12px; font-weight: 200;" fill="rgb(50, 49, 63)" stroke="none" stroke-width="1px">-0.8</text><text x="0" y="133.5" dx="0em" dy="0.3em" style="text-anchor: end; visibility: inherit; font-family: Roboto, sans-serif; font-size: 12px; font-weight: 200;" fill="rgb(50, 49, 63)" stroke="none" stroke-width="1px">-0.6</text><text x="0" y="118.66666666666669" dx="0em" dy="0.3em" style="text-anchor: end; visibility: hidden; font-family: Roboto, sans-serif; font-size: 12px; font-weight: 200;" fill="rgb(50, 49, 63)" stroke="none" stroke-width="1px">-0.4</text><text x="0" y="103.83333333333331" dx="0em" dy="0.3em" style="text-anchor: end; visibility: inherit; font-family: Roboto, sans-serif; font-size: 12px; font-weight: 200;" fill="rgb(50, 49, 63)" stroke="none" stroke-width="1px">-0.2</text><text x="0" y="89" dx="0em" dy="0.3em" style="text-anchor: end; visibility: hidden; font-family: Roboto, sans-serif; font-size: 12px; font-weight: 200;" fill="rgb(50, 49, 63)" stroke="none" stroke-width="1px">0</text><text x="0" y="74.16666666666666" dx="0em" dy="0.3em" style="text-anchor: end; visibility: inherit; font-family: Roboto, sans-serif; font-size: 12px; font-weight: 200;" fill="rgb(50, 49, 63)" stroke="none" stroke-width="1px">0.2</text><text x="0" y="59.33333333333332" dx="0em" dy="0.3em" style="text-anchor: end; visibility: hidden; font-family: Roboto, sans-serif; font-size: 12px; font-weight: 200;" fill="rgb(50, 49, 63)" stroke="none" stroke-width="1px">0.4</text><text x="0" y="44.5" dx="0em" dy="0.3em" style="text-anchor: end; visibility: inherit; font-family: Roboto, sans-serif; font-size: 12px; font-weight: 200;" fill="rgb(50, 49, 63)" stroke="none" stroke-width="1px">0.6</text><text x="0" y="29.66666666666666" dx="0em" dy="0.3em" style="text-anchor: end; visibility: hidden; font-family: Roboto, sans-serif; font-size: 12px; font-weight: 200;" fill="rgb(50, 49, 63)" stroke="none" stroke-width="1px">0.8</text><text x="0" y="14.83333333333332" dx="0em" dy="0.3em" style="text-anchor: end; visibility: inherit; font-family: Roboto, sans-serif; font-size: 12px; font-weight: 200;" fill="rgb(50, 49, 63)" stroke="none" stroke-width="1px">1</text><text x="0" y="0" dx="0em" dy="0.3em" style="text-anchor: end; visibility: hidden; font-family: Roboto, sans-serif; font-size: 12px; font-weight: 200;" fill="rgb(50, 49, 63)" stroke="none" stroke-width="1px">1.2</text></g><line x1="50" y1="0" x2="50" y2="178" fill="rgb(0, 0, 0)" stroke="rgb(204, 204, 204)" stroke-width="1px"></line></g></g><g transform="translate(50, 0)" clip-path="url(#clip_0)"><clipPath id="clip_0"><rect width="280" height="178"></rect></clipPath><g><g><g><line x1="0" y1="0" x2="0" y2="178" fill="rgb(0, 0, 0)" stroke="rgb(60, 60, 60)" stroke-width="1px" opacity="0.25"></line><line x1="23.333333333333332" y1="0" x2="23.333333333333332" y2="178" fill="rgb(0, 0, 0)" stroke="rgb(60, 60, 60)" stroke-width="1px" opacity="0.25"></line><line x1="46.666666666666664" y1="0" x2="46.666666666666664" y2="178" fill="rgb(0, 0, 0)" stroke="rgb(60, 60, 60)" stroke-width="1px" opacity="0.25"></line><line x1="70" y1="0" x2="70" y2="178" fill="rgb(0, 0, 0)" stroke="rgb(60, 60, 60)" stroke-width="1px" opacity="0.25"></line><line x1="93.33333333333333" y1="0" x2="93.33333333333333" y2="178" fill="rgb(0, 0, 0)" stroke="rgb(60, 60, 60)" stroke-width="1px" opacity="0.25"></line><line x1="116.66666666666667" y1="0" x2="116.66666666666667" y2="178" fill="rgb(0, 0, 0)" stroke="rgb(60, 60, 60)" stroke-width="1px" opacity="0.25"></line><line x1="140" y1="0" x2="140" y2="178" fill="rgb(0, 0, 0)" stroke="rgb(60, 60, 60)" stroke-width="1px" opacity="0.25"></line><line x1="163.33333333333334" y1="0" x2="163.33333333333334" y2="178" fill="rgb(0, 0, 0)" stroke="rgb(60, 60, 60)" stroke-width="1px" opacity="0.25"></line><line x1="186.66666666666666" y1="0" x2="186.66666666666666" y2="178" fill="rgb(0, 0, 0)" stroke="rgb(60, 60, 60)" stroke-width="1px" opacity="0.25"></line><line x1="210" y1="0" x2="210" y2="178" fill="rgb(0, 0, 0)" stroke="rgb(60, 60, 60)" stroke-width="1px" opacity="0.25"></line><line x1="233.33333333333334" y1="0" x2="233.33333333333334" y2="178" fill="rgb(0, 0, 0)" stroke="rgb(60, 60, 60)" stroke-width="1px" opacity="0.25"></line><line x1="256.66666666666663" y1="0" x2="256.66666666666663" y2="178" fill="rgb(0, 0, 0)" stroke="rgb(60, 60, 60)" stroke-width="1px" opacity="0.25"></line><line x1="280" y1="0" x2="280" y2="178" fill="rgb(0, 0, 0)" stroke="rgb(60, 60, 60)" stroke-width="1px" opacity="0.25"></line></g><g><line x1="0" y1="178" x2="280" y2="178" fill="rgb(0, 0, 0)" stroke="rgb(60, 60, 60)" stroke-width="1px" opacity="0.25"></line><line x1="0" y1="163.16666666666669" x2="280" y2="163.16666666666669" fill="rgb(0, 0, 0)" stroke="rgb(60, 60, 60)" stroke-width="1px" opacity="0.25"></line><line x1="0" y1="148.33333333333334" x2="280" y2="148.33333333333334" fill="rgb(0, 0, 0)" stroke="rgb(60, 60, 60)" stroke-width="1px" opacity="0.25"></line><line x1="0" y1="133.5" x2="280" y2="133.5" fill="rgb(0, 0, 0)" stroke="rgb(60, 60, 60)" stroke-width="1px" opacity="0.25"></line><line x1="0" y1="118.66666666666669" x2="280" y2="118.66666666666669" fill="rgb(0, 0, 0)" stroke="rgb(60, 60, 60)" stroke-width="1px" opacity="0.25"></line><line x1="0" y1="103.83333333333331" x2="280" y2="103.83333333333331" fill="rgb(0, 0, 0)" stroke="rgb(60, 60, 60)" stroke-width="1px" opacity="0.25"></line><line x1="0" y1="89" x2="280" y2="89" fill="rgb(0, 0, 0)" stroke="rgb(60, 60, 60)" stroke-width="1px" opacity="0.25"></line><line x1="0" y1="74.16666666666666" x2="280" y2="74.16666666666666" fill="rgb(0, 0, 0)" stroke="rgb(60, 60, 60)" stroke-width="1px" opacity="0.25"></line><line x1="0" y1="59.33333333333332" x2="280" y2="59.33333333333332" fill="rgb(0, 0, 0)" stroke="rgb(60, 60, 60)" stroke-width="1px" opacity="0.25"></line><line x1="0" y1="44.5" x2="280" y2="44.5" fill="rgb(0, 0, 0)" stroke="rgb(60, 60, 60)" stroke-width="1px" opacity="0.25"></line><line x1="0" y1="29.66666666666666" x2="280" y2="29.66666666666666" fill="rgb(0, 0, 0)" stroke="rgb(60, 60, 60)" stroke-width="1px" opacity="0.25"></line><line x1="0" y1="14.83333333333332" x2="280" y2="14.83333333333332" fill="rgb(0, 0, 0)" stroke="rgb(60, 60, 60)" stroke-width="1px" opacity="0.25"></line><line x1="0" y1="0" x2="280" y2="0" fill="rgb(0, 0, 0)" stroke="rgb(60, 60, 60)" stroke-width="1px" opacity="0.25"></line></g></g></g><g><g><line x1="0" y1="89" x2="280" y2="89" fill="rgb(0, 0, 0)" stroke="rgb(153, 153, 153)" stroke-width="1.5px"></line></g></g><g><g><line x1="23.333333333333332" y1="0" x2="23.333333333333332" y2="178" fill="rgb(0, 0, 0)" stroke="rgb(153, 153, 153)" stroke-width="1.5px"></line></g></g><g><g><g><g><g><path stroke="rgb(255, 112, 67)" stroke-width="2px" d="M23.71562666666667,163.16666666666669L23.8112,163.16666666666669L24.38464,163.16666666666669L24.76693333333333,163.16666666666669L24.862506666666665,163.16666666666669L25.149226666666667,163.16666666666669L25.2448,163.16666666666669L25.340373333333336,163.16666666666669L25.53152,163.16666666666669L25.627093333333335,163.16666666666669L25.913813333333334,163.16666666666669L26.009386666666664,163.16666666666669L26.58282666666667,163.16666666666669L27.060693333333333,163.16666666666669L27.251839999999998,163.16666666666669L27.920853333333334,163.16666666666669L28.016426666666668,163.16666666666669L28.112000000000002,163.16666666666669L28.303146666666667,163.16666666666669L28.589866666666666,163.16666666666669L28.876586666666665,163.16666666666669L29.163306666666667,163.16666666666669L29.25888,163.16666666666669L29.354453333333336,163.16666666666669L29.450026666666666,163.16666666666669L29.641173333333334,163.16666666666669L29.73674666666667,163.16666666666669L29.83232,163.16666666666669L29.927893333333333,163.16666666666669L30.11904,163.16666666666669L30.214613333333332,163.16666666666669L30.788053333333334,163.16666666666669L30.979200000000002,163.16666666666669L31.074773333333333,163.16666666666669L31.26592,163.16666666666669L31.55264,163.16666666666669L31.934933333333333,163.16666666666669L32.89066666666667,162.57333389697695L32.98624,162.21733423657312L33.27296,162.59706720911817L33.55968,162.8249069923203L33.655253333333334,162.96161086212464L33.8464,163.04363318396514L34.515413333333335,163.09284657705427L34.99328,163.12237461290232L35.375573333333335,162.54675866688558L35.47114666666667,162.20138909929852L35.66229333333333,161.40083282298355L35.85344,160.32716628971147L35.94901333333333,159.6829663697575L36.42688,159.29644641778845L36.52245333333333,159.06453444660823L37.19146666666667,158.33205449641292L37.38261333333334,158.48589929378375L37.478186666666666,158.57820617220614L37.76490666666667,160.41359036999103L38.43392,161.51482088866152L38.720639999999996,162.17555919986367L38.911786666666664,162.5720021865849L39.10293333333333,162.80986797861763L39.67637333333334,162.95258745383725L39.77194666666667,163.03821913896903L39.867520000000006,163.08959815004806L40.15424,163.1204255566955L40.249813333333336,163.13892200068398L40.34538666666667,163.15001986707705L40.72768,163.1566785869129L41.0144,163.1606738188144L41.109973333333336,163.1630709579553L41.20554666666666,163.16450924143984L41.58784,163.16537221153058L41.683413333333334,163.165889993585L41.77898666666666,163.1662006628177L42.065706666666664,163.16638706435728L42.448,163.16649890528103L42.73472,163.1665660098353L42.83029333333334,163.16660627256783L42.92586666666667,163.16663043020736L43.02144,163.1666449247911L43.21258666666667,163.16665362154131L43.403733333333335,163.16665883959146L43.59488,163.16666197042153L43.786026666666665,163.1666638489196L43.97717333333333,163.1666649760184L44.07274666666667,163.16666565227774L44.35946666666666,163.16666605803331L44.45504,163.16666630148666L44.55061333333333,163.16666644755867L44.646186666666665,163.16666653520184L44.83733333333333,163.16666658778777L45.315200000000004,163.16666661933934L46.07978666666667,163.16666663827027L46.27093333333333,163.1666666496288L46.46208,163.16666665644397L46.7488,163.16666666053302L46.84437333333333,163.1666666629865L46.939946666666664,163.16666666445855L47.608959999999996,163.1666666653418L47.70453333333333,163.16666666587176L48.08682666666667,163.1666666661897L48.1824,163.1666666663805L48.277973333333335,163.16666666649496L48.469120000000004,163.16666666656363L49.23370666666667,163.16666666660487L49.32928,163.1666666666296L49.616,163.16666666664443L49.80714666666667,163.16666666665333L49.99829333333333,163.16666666665867L50.18944,162.57333389917528L50.380586666666666,162.21733423868528L50.47615999999999,162.00373444239128L50.66730666666667,162.46890733210142L50.85845333333334,162.74801106592753L50.95402666666667,162.9154733062232L51.14517333333333,163.01595065040058L51.62304,163.07623705690702L51.71861333333334,163.1124089008109L51.814186666666664,163.1341120071532L51.90976,163.14713387095858L52.674346666666665,163.1549469892418L52.86549333333333,163.15963486021175L52.96106666666667,163.16244758279373L53.24778666666666,163.16413521634288L53.63008000000001,163.1651477964724L53.82122666666667,163.1657553445501L53.9168,163.16611987339672L54.203520000000005,163.16633859070473L54.394666666666666,163.1664698210895L54.87253333333334,163.16654855932035L55.06368,163.16659580225888L55.15925333333333,163.166624148022L55.637119999999996,163.16664115547988L55.73269333333333,163.16665135995459L55.92384,163.16665748263944L56.21056,163.1666611562503L56.40170666666667,163.16666336041686L56.49728,163.1666646829168L56.87957333333333,163.16666547641674L57.07072,163.16666595251672L57.166293333333336,163.1666662381767L57.26186666666667,163.16666640957268L57.64416,163.16666651241027L58.02645333333333,163.16666657411284L58.12202666666666,163.16666661113436L58.2176,163.1666666333473L58.31317333333333,163.16666664667503L58.408746666666666,163.16666665467167L58.50432,163.16666665946968L59.17333333333334,162.5733338948619L59.460053333333335,162.21733423609723L59.55562666666667,162.00373444083843L60.320213333333335,162.46890733116973L60.702506666666665,162.7480110653685L60.79808,162.9154733058878L60.89365333333333,163.01595065019933L60.98922666666667,162.4829042892997L61.0848,162.1630764727599L61.37152,161.97117978283606L61.84938666666667,162.44937453636828L62.040533333333336,162.73629138848764L62.422826666666666,162.90844149975925L62.5184,163.01173156652223L62.90069333333334,162.48037283909343L62.99626666666667,162.16155760263615L63.09184,162.56360122824836L63.37856,161.6181601003714L63.665279999999996,159.8642298886721L63.76085333333333,159.40520452913907L64.04757333333333,160.31645661666354L64.14314666666667,160.8632078691782L64.52544,161.7845913881736L65.00330666666667,162.33742149957084L65.09888000000001,162.66911956640917L65.19445333333334,162.86813840651217L65.3856,162.98754971057397L65.48117333333333,163.05919649301106L65.57674666666666,163.10218456247327L65.76789333333333,163.12797740415064L65.86346666666667,163.14345310915704L65.95904,162.55940576467432L66.05461333333334,162.20897735798468L66.43690666666666,162.5920530814575L66.62805333333333,162.82189851554114L66.72362666666666,162.95980577599136L66.8192,163.04255013226148L67.01034666666666,163.09219674602355L67.20149333333333,163.1219847142808L67.39264,163.13985749523516L67.48821333333333,163.15058116380777L67.87050666666667,163.15701536495132L67.96608,163.16087588563744L68.15722666666667,162.56985943056256L68.34837333333333,162.21524955751764L68.73066666666666,162.59581640117725L68.82624,162.824156507373L69.11296,162.96116057109046L69.20853333333334,163.04336300932096L69.30410666666667,163.09268447225924L69.39968,163.12227735002222L69.59082666666666,163.14003307668L69.68639999999999,163.15068651267467L69.97312,163.15707857427145L70.06869333333333,163.16091381122953L70.16426666666668,163.16321495340438L70.35541333333333,163.1645956387093L70.64213333333333,163.16542404989224L71.02442666666666,163.165921096602L71.40671999999999,163.16621932462786L71.50229333333333,163.1663982614434L71.78901333333334,163.1665056235327L72.07573333333333,163.1665700407863L72.17130666666667,163.16660869113844L72.26688,163.16663188134973L72.36245333333333,163.1666457954765L72.45802666666667,163.16665414395257L72.5536,163.1666591530382L72.84031999999999,162.57332939100303L72.93589333333334,162.21733153378193L73.03146666666666,162.00373281944923L73.12704000000001,161.87557359084963L73.41376,162.39201082117646L74.08277333333334,162.70187315937255L74.36949333333334,162.88779056229018L74.46506666666667,162.9993410040408L74.65621333333333,163.06627126909115L74.75178666666667,163.10642942812137L74.84736,163.13052432353948L75.03850666666666,163.14498126079036L75.22965333333333,163.1536554231409L75.4208,163.15885992055118L75.61194666666667,163.16198261899737L75.70752,163.1638562380651L75.99423999999999,163.16498040950572L76.18538666666666,163.1656549123701L76.47210666666666,163.16605961408874L76.56768,162.57296966763332L77.14112,162.81044846724666L77.23669333333333,162.95293574701466L77.33226666666667,163.03842811487547L77.71456,163.08972353559193L78.00128,163.12050078802184L78.19242666666666,163.13896713947975L78.47914666666667,161.96337964711026L78.86144,160.0713616167154L79.24373333333334,159.52948356596505L79.33930666666666,158.6110239680283L79.43488,158.6532809767528L79.62602666666666,156.89863511125665L79.81717333333333,154.65918028871468L79.91274666666668,151.53550732445868L80.00832,147.88130524344535L80.19946666666667,142.12878385337567L80.39061333333333,138.08393648357614L80.48618666666667,136.2503625974541L80.58176,134.55688373002323L80.67733333333334,131.16746357134727L80.96405333333333,126.76047775378869L81.05962666666667,124.70961991487572L81.53749333333333,121.69910514079707L81.72864,119.29946350886331L82.01536,122.01301143865132L82.11093333333332,123.047806544902L82.30207999999999,124.85535002776112L82.49322666666666,124.75320969836787L82.68437333333334,122.91192543000105L82.87552000000001,125.36715589457825L82.97109333333333,127.43362694081114L83.25781333333335,132.23350971001256L83.44896,140.45343958372592L83.54453333333333,145.97873027544054L83.92682666666666,151.07390476120014L84.30912,155.91100952338675L84.59584,157.62660507745446L84.69141333333333,158.65596240989507L84.78698666666666,159.27357680935944L84.88256,159.64414544903806L84.97813333333333,159.86648663284524L85.456,159.99989134312955L85.64714666666667,157.1132685635961L85.74272,154.1946275926318L85.83829333333334,149.47677740434924L85.93386666666666,143.67939991740457L86.02944000000001,137.82764058702034L86.31616,136.09658505952066L86.50730666666666,133.27795167229L87.17632,132.18010440743817L87.46303999999999,133.8947288867445L87.94090666666666,134.9235035743283L88.03648,136.72743569012283L88.13205333333333,136.6231276563553L88.41877333333333,134.18720999787735L88.60992,135.098992241008L88.70549333333334,132.6793959811824L88.80106666666667,130.0409709220428L89.08778666666666,125.49124939671945L89.56565333333333,128.6947503453401L89.7568,134.17685105597423L89.94794666666667,132.7194440376487L90.04352,130.06499975592254L90.23466666666666,129.65900049013115L90.52138666666667,131.78873376887373L90.61695999999999,130.09990636214414L90.80810666666666,130.27327722135064L91.19040000000001,129.1906324336303L91.28597333333333,126.7610463744028L91.47712,124.70996108724417L91.76384,121.10597707673158L91.95498666666667,123.09691957937228L92.24170666666666,126.6648179191741L92.33728,127.61889138808208L92.52842666666668,127.59800093366916L92.71957333333333,126.39880024191271L92.81514666666666,123.89927975612795L93.00629333333333,121.80623469717055L93.10186666666667,122.33040773252695L93.29301333333333,121.45824425049653L93.38858666666665,121.52827981290041L93.48416,118.60363466050316L93.96202666666667,118.62884763979568L94.34432000000001,125.763974826159L94.43989333333333,130.63838567373472L94.53546666666668,133.56303218228012L95.58677333333333,131.7578199459457L95.68234666666667,133.04802544236242L95.87349333333333,131.44881590199506L96.44693333333333,123.96262266233785L96.54250666666667,120.65757402178778L96.82922666666667,124.60787781713684L96.9248,126.97806009434629L97.21152,128.40016946067195L97.49824000000001,129.84676784795394L97.59381333333333,124.18806113315743L97.78496,121.38616987176609L97.88053333333333,119.7050351149313L97.97610666666667,124.62968724050951L98.07168,128.77114581910075L98.16725333333333,131.84935373374202L98.74069333333333,133.10294571504025L99.02741333333333,121.39510085077104L99.792,122.08372742468725L100.26986666666667,118.34356957595315L100.36543999999999,114.91280844760398L100.46101333333334,114.63435184132533L100.55658666666666,114.46727787755813L100.84330666666666,103.09370008639229L101.60789333333334,97.45622005183537L101.70346666666666,96.44706531138642L101.89461333333333,96.4349058977053L102.08576000000001,94.64761017876576L102.46805333333334,95.3552328181329L102.56362666666666,96.37313961130755L102.94592,95.20388372699843L103.04149333333334,92.72233023619907L103.23264,94.79339806214725L103.32821333333332,96.6293721883044L103.42378666666667,96.54429002385606L103.61493333333334,97.67990736532968L103.71050666666666,97.17461113007126L103.99722666666666,98.05810002905879L104.18837333333333,93.24819337729267L104.66623999999999,90.95558270630431L104.76181333333334,88.98668298363998L105.04853333333334,86.61867650989879L105.33525333333333,88.16453922601058L105.62197333333334,87.90539021553505L105.81312,88.93656744939233L106.09984,91.3352737499206L106.19541333333333,92.18116421016626L106.57770666666667,95.0620318771158L106.67327999999999,94.41721908648337L107.91573333333334,91.06366481174744L108.01130666666667,85.49153232647805L108.10688,81.55491918369428L108.29802666666666,86.31295147043046L108.48917333333333,88.57443752240088L108.68032,85.77799580256709L108.96704,88.25346412168284L109.15818666666667,87.36541183286711L109.25376,82.67924688752773L109.54048,87.58088141280183L109.63605333333332,89.33519548782371L109.82719999999999,85.64111737226642L110.11392000000001,86.98467042335984L110.20949333333333,87.1974689339446L110.40064000000001,95.6318144107767L110.49621333333333,96.53908856689384L110.78293333333335,95.89678642042149L111.16522666666667,93.1380718522529L111.2608,92.07617643142305L111.45194666666666,92.62570581906772L111.64309333333333,92.36209013158322L112.02538666666666,89.83058743880733L112.12096,89.49835246328442L112.31210666666666,92.2656781888441L112.40768,92.73940687352035L112.50325333333333,88.87031084382701L112.59882666666667,84.76885315528017L112.78997333333332,88.24131185338199L113.17226666666667,86.7647871518153L113.36341333333334,86.47220565094658L113.45898666666666,86.88999007049665L113.74570666666668,90.70066075317145L114.128,95.36039666409539L114.41472,96.9695713494733L114.70144,95.56174276989788L114.79701333333333,91.75037902179612L115.17930666666666,84.71689399133078L115.37045333333333,76.93680327365766L115.46602666666666,69.89541512070082L115.65717333333333,58.55058283013889L115.84832,56.49035001637213L115.94389333333334,58.81420958543821L116.23061333333334,58.42852614028258L116.70848000000001,58.79044884067577L116.89962666666668,60.787602531642534L116.9952,63.76589481695344L117.18634666666667,62.586203698300416L117.28192,63.06505544621729L117.66421333333334,62.16570007585873L118.04650666666667,56.87941940893762L118.23765333333334,54.300985544542655L118.4288,59.87392462469352L118.61994666666666,56.09768867399622L118.81109333333333,53.831947103577825L118.90666666666668,54.25250134792208L119.19338666666667,57.47150038436816L119.28896,58.216233387127126L119.38453333333334,58.069740421295926L119.57567999999999,60.94851113163675L120.05354666666668,57.33577334564873L120.24469333333333,54.574797906569316L120.43584,55.2915454813391L120.53141333333333,58.09492686441838L120.62698666666667,59.776955694265965L121.10485333333332,57.81950650233494L121.48714666666667,59.61170347701591L121.67829333333334,58.31368882360705L121.77386666666666,57.534880031561734L122.34730666666667,55.88092833722583L122.44288,57.855223810463876L122.53845333333334,59.03980109440668L122.63402666666667,56.19054732331066L122.72959999999999,54.48099506065307L123.11189333333333,53.455263703058506L123.39861333333333,51.05982481777093L123.97205333333333,65.04922825051996L124.06762666666665,77.00287023059718L124.35434666666667,81.20838881828702L124.54549333333333,89.66503350316474L124.64106666666667,94.14568666246923L124.73664,100.39407869951363L124.92778666666666,104.73644757336241L125.21450666666667,95.47520183314401L125.40565333333333,94.66512106010029L125.5968,91.21240599591758L125.69237333333334,85.58077703698015L125.78794666666667,79.23513317177813L125.88351999999999,77.20774648131999L125.97909333333334,78.95798117791855L126.07466666666666,81.78812206660854L126.36138666666668,82.29953995967992L126.45696,82.60639069552276L126.64810666666666,90.5038346295062L126.74368,93.4623006981315L126.83925333333333,94.64404712975234L127.12597333333333,94.7597615581366L127.22154666666667,94.23585689509585L127.31712,96.29484748807357L127.69941333333333,92.78357517277283L128.36842666666666,93.0501450638776L128.55957333333333,89.65008707811268L128.75072,92.35671895774104L128.84629333333334,96.35403158683717L128.94186666666667,99.3457523738492L129.22858666666667,92.24078471343606L129.41973333333334,89.16447086784773L129.61087999999998,89.69201584077993L129.70645333333334,90.60187614461057L129.8976,88.18112572655244L130.37546666666668,94.44200885767833L130.56661333333335,88.70520539417922L130.66218666666666,84.07645667593714L130.94890666666666,82.48587408513448L131.04448,79.75152423888815L131.23562666666666,83.4509145433329L131.3312,87.45054868621362L131.52234666666666,85.69699593144298L131.61792,82.86486420784975L131.80906666666667,78.79225189340859L131.90464,79.31535121561735L132.00021333333333,81.40921076915653L132.28693333333334,77.91885983019266L132.5736533333333,78.19798254709956L132.86037333333334,88.45212295000661L132.95594666666668,95.79127361085958L133.14709333333334,94.26143080665834L133.33824,93.9368584442089L133.43381333333332,91.96211506652536L133.52938666666668,93.15060232020042L133.62496,94.45702810299368L134.29397333333333,99.39421670265182L134.48512,105.91653044597616L134.67626666666666,105.0832516893326L134.96298666666667,99.83661765374215L135.53642666666667,94.3153039521027L135.632,90.40918241104771L135.82314666666667,93.40550936705642L135.91872,96.38997218080426L136.01429333333334,96.400650019356L136.39658666666665,95.81372329189881L136.58773333333332,94.86823393535317L136.77888,91.33427372106931L136.97002666666666,88.02723095235639L137.0656,87.82300525134252L137.16117333333332,88.88713647087683L137.44789333333333,85.96561517165264L137.54346666666666,84.21270239211813L137.63904,86.72095475534218L137.83018666666666,91.1925727736331L137.92576,93.87554358460766L138.21248,92.51865947083591L138.59477333333334,89.92452904235896L138.69034666666667,90.14805074548666L138.78592,85.53549709627593L138.97706666666667,83.36129833733776L139.35936,74.34344581053102L139.45493333333334,68.33940064282484L139.83722666666668,60.58363974911728L140.31509333333332,58.89685058686789L140.50624000000002,51.95144410983914L140.88853333333333,54.31086685492312L141.17525333333336,53.94652043124267L141.27082666666666,53.72791257703441L141.74869333333334,52.410081445400735L141.93984,55.7727156753688L142.13098666666667,51.263628697912836L142.22655999999998,49.7448438146835L142.32213333333334,51.80023937458547L142.51328,54.813476781257506L142.8,56.62141922526072L142.89557333333332,55.332851853445234L142.99114666666665,55.153044197842526L143.08672,55.63849325610303L143.27786666666665,55.33642903943719L143.46901333333335,53.96852409032898L143.56458666666666,57.301114029812304L143.8513066666667,55.74066873617619L143.94688,55.99106797910322L144.52032000000003,57.92130759559029L144.90261333333333,56.706117643129545L145.38048,52.41700441432698L145.47605333333334,48.06353640631458L145.57162666666665,47.23145567223799L145.95391999999998,44.95220716106121L146.24063999999998,52.48465752387379L146.71850666666668,51.07079387774666L147.00522666666666,56.15580955388506L147.48309333333336,55.05348605061985L147.57866666666666,54.392091948660706L147.86538666666667,48.65525439115713L148.24768,44.6198190891684L148.62997333333334,40.41855783724432L149.10784,30.77780080316649L149.58570666666665,26.773346653450677L149.77685333333335,21.997341325403713L150.06357333333335,20.911738199306402L150.1591466666667,20.260376323648018L150.35029333333333,19.27622643076639L151.01930666666667,18.092401959279762L151.87946666666664,16.788774508901184L151.97504,16.5999308061606L152.16618666666665,20.639959261735658L152.26176,20.097308961105586L152.54847999999998,23.3317189221892L152.64405333333335,20.52569745413343L152.8352,18.842084573299957L153.21749333333332,17.23858407731333L153.40864000000002,16.276483779721307L153.79093333333336,16.292556368652694L153.88650666666666,15.708867154524967L153.98208,15.358653626048293L154.07765333333333,16.33519281220658L154.17322666666666,16.92111632390154L154.55552,16.08600312767426L154.84224,15.584935209937903L154.93781333333334,15.28429445929607L155.32010666666667,15.697242776397527L155.79797333333332,15.945011766658444L155.89354666666665,15.500340393328395L156.27584,15.23353756933037L156.56256,16.853455945662393L156.94485333333333,16.045406900730764L157.51829333333333,16.747244777016075L158.76074666666668,17.168347502787245L158.85631999999998,16.234341835005683L159.23861333333332,18.047271272554152L160.19434666666666,16.761696096865826L160.28992,15.990350991452832L160.67221333333333,15.527543928205036L160.86336,15.843192457742926L160.95893333333333,15.43924880797909L161.05450666666667,15.196882618120787L161.15008,15.0514629042058L161.43679999999998,16.74421114658767L161.72352,15.97986002128593L161.91466666666668,17.301249416835734L162.10581333333332,16.314082983434776L162.20138666666665,19.875116032342465L162.39253333333335,17.85840295273879L162.48810666666665,17.835042408220875L162.58368,16.63435877826584L162.67925333333335,15.91394860029286L162.77482666666666,15.481702493509024L162.8704,15.815687596925322L162.96597333333332,15.422745891488526L163.0615466666667,15.186980868226444L163.25269333333333,15.045521854269195L163.92170666666667,14.960646445894852L164.20842666666667,14.909721200870239L164.304,14.879166053855496L164.49514666666667,15.454165733133177L165.16415999999998,15.205832773213235L165.54645333333332,15.056832997261273L165.7376,16.74743320242094L165.83317333333332,15.981793254785895L166.11989333333332,15.522409286204866L166.21546666666666,15.246778905056274L166.59776,15.081400676367073L166.69333333333336,14.98217373915358L166.78890666666666,14.922637576825476L166.98005333333333,14.886915879428617L167.64906666666667,16.645482931721325L167.74463999999998,15.920623092366132L167.84021333333334,18.45237456272812L168.03136,17.00475807097022L168.22250666666667,16.729520943402036L168.31808,15.97104589937455L168.98709333333335,16.702628176202328L169.46496,15.954910239054753L170.03840000000002,15.506279476766164L170.32512,15.23710101939305L170.42069333333333,15.075593944969143L170.7074133333333,15.57202246780139L171.37642666666665,17.649879652231576L171.66314666666668,16.523261124672295L171.75871999999998,15.847290008136689L171.85429333333335,16.03504010570194L172.71445333333332,15.55435739675447L173.00117333333336,15.265947771386038L173.09674666666666,15.092901996164935L173.28789333333333,14.989074531032298L173.47904,14.92677805195269L173.57461333333333,14.889400164504947L173.67018666666667,14.866973432036316L173.76576,14.853517392555101L174.05247999999997,14.845443768866398L174.24362666666667,14.840599594653193L174.43477333333334,14.837693090125224L174.53034666666667,18.395949328870163L174.62592,16.97090293065541L174.91264,16.115875091726597L175.39050666666665,15.60285838836927L175.86837333333332,15.88838113384147L175.9639466666667,15.466362013638218L176.05952,15.213150541516264L176.44181333333333,15.061223658243074L176.53738666666666,19.716734972985165L176.63296,20.13670715534184L177.39754666666667,18.01535762653844L177.58869333333334,16.74254790925641L177.68426666666664,17.165529382131442L177.87541333333334,16.23265096261222L178.44885333333332,15.67292391090066L178.64000000000001,15.337087679873727L178.83114666666665,15.135585941257572L178.92672000000002,15.014684898087872L179.30901333333335,20.87547725186516L179.69130666666666,20.831952522669837L179.88245333333333,18.432504846935238L180.16917333333333,17.586169008981045L180.26474666666667,16.485034738721954L180.74261333333334,15.824354176566505L180.83818666666667,15.427945839273239L181.0293333333333,15.19010083689726L181.22048,15.047393835471711L181.31605333333334,14.961769634616354L181.41162666666665,14.91039511410314L181.5072,14.879570401795236L181.69834666666665,14.86107557441047L181.88949333333335,14.849978677979617L182.27178666666669,14.843320540121098L182.46293333333332,14.839325657405992L182.65408000000002,16.02359603102121L182.94080000000002,15.547490951946058L183.03637333333333,15.26182790450097L183.41866666666667,15.09043007603389L183.70538666666667,14.987591378953667L183.89653333333334,28.572554190794584L183.99210666666664,29.603533363246886L184.18325333333334,27.84878626022973L184.46997333333334,22.642605089471164L184.56554666666668,20.112229154502604L184.66111999999998,18.000670826034895L184.75669333333332,16.73373582895429L185.23456000000002,15.973574830705903L185.33013333333332,15.517478231756854L185.42570666666666,18.803820413849145L185.61685333333335,26.115625935297054L185.808,22.78937619775581L185.90357333333336,21.386959122717677L186.09472,19.95217611020819L186.2858666666667,17.90463899945825L186.57258666666667,16.676116733008286L186.76373333333333,15.93900337313832L186.85930666666667,15.49673535721632L186.95487999999997,20.571374759855644L187.05045333333334,19.46282549249099L187.6238933333333,17.611028628827924L188.00618666666665,16.499950510630086L188.10175999999998,18.206636477928775L188.19733333333335,16.8573152200906L188.29290666666665,16.047722465387697L188.77077333333332,15.561966812565945L189.53536,15.863846188359453L189.63093333333333,15.451641046349007L190.01322666666667,15.204317961142737L190.20437333333334,15.64925687750555L190.49109333333334,15.322887459836666L190.58666666666667,15.720398576721903L190.68223999999998,15.365572479366477L190.77781333333334,15.15267682095324L190.96895999999998,20.958272405584378L191.06453333333334,19.101629544170507L191.35125333333332,20.954311201297337L191.82912000000002,22.065920195573433L191.92469333333335,22.13955282465251L192.11584,20.40373233136912L192.40256,18.768905499641377L193.07157333333333,17.194676633118135L193.16714666666667,16.250139313204212L193.26271999999997,15.68341692125584L193.54944,15.343383486086859L193.9317333333333,15.139363424985424L194.02730666666668,16.79695145905545L194.12288,16.011504208766617L194.4096,15.540235858593283L194.50517333333335,15.257474848489286L194.69632,15.087818242426907L194.88746666666668,14.98602427878948L195.07861333333332,14.92494790060702L195.46090666666666,19.634969518403505L195.65205333333333,17.714315044375454L196.2254933333333,17.155255127445177L196.41664,16.226486409800433L196.79893333333334,22.195892694650396L197.27679999999998,19.250868950123575L197.65909333333332,17.48385470340749L197.94581333333332,17.61031345862209L198.04138666666665,16.499521408506585L198.23253333333332,20.57971362314323L198.32810666666666,18.28116150721927L198.51925333333335,17.49536300515145L198.61482666666666,16.430551136424203L198.7104,18.758331389162993L198.90154666666666,18.37499947007537L198.99712,18.145000318622824L199.09269333333333,16.820333524507028L199.76170666666667,16.025533448037564L199.85728,15.548653402155866L199.95285333333334,15.262525374626852L200.04842666666667,15.090848558109442L200.33514666666667,14.987842468198998L201.19530666666668,15.519371581739307L201.5776,17.618289120594323L201.67317333333332,17.097639573176483L201.76874666666666,16.191917077239246L201.86432000000002,15.64848357967688L202.24661333333333,16.50909078438374L202.34218666666666,16.432120571450124L202.53333333333336,15.792605676203411L202.62890666666667,15.408896739055375L202.82005333333333,15.17867137676656L203.10677333333334,15.040536159393273L203.39349333333334,18.517655170430988L203.48906666666667,20.603926577053617L203.68021333333334,18.29568927956552L203.87135999999998,18.6907469718035L204.06250666666668,17.147781516415407L204.54037333333332,16.81533501066915L204.92266666666666,16.022534339734804L205.20938666666666,15.546853937174236L205.59168,15.26144569563787L205.78282666666667,15.090200750716058L205.8784,14.987453783762946L205.97397333333333,16.705805674321944L206.26069333333334,18.330149576143924L206.73856,16.93142307901967L207.31199999999998,16.685519948231708L207.40757333333335,15.94464530227236L207.50314666666668,17.873453352914158L207.78986666666668,17.250738112568396L208.07658666666669,16.28377620087435L208.36330666666666,15.703599053857946L208.45888000000002,15.355492765648096L208.84117333333336,15.146628992722189L208.93674666666666,15.021310728966622L209.03232,14.94611977071331L209.31904,14.901005195761321L209.51018666666664,14.87393645079013L209.79690666666667,14.857695203807413L209.89247999999998,14.847950455617784L210.08362666666667,14.842103606703999L210.37034666666668,14.838595497355735L210.75264,14.836490631746749L210.84821333333332,16.02189501562565L210.94378666666665,15.546470342708721L211.03936000000002,15.261215538958568L211.13493333333335,15.090062656708458L211.32608,14.987370927358427L211.42165333333335,14.925755889748384L211.51722666666666,14.888786867182386L211.6128,16.646605524373577L212.18624,15.921296647957476L212.37738666666667,17.26611139283868L212.56853333333333,16.293000169036524L212.66410666666667,15.70913343475525L212.75968,15.358813394186463L212.8552533333333,15.148621369845209L212.95082666666667,15.022506155240453L213.14197333333334,14.946837026477585L213.33312,14.901435549219906L213.42869333333334,14.874194662865293L213.71541333333334,14.857850131052503L213.81098666666668,14.84804341196485L214.09770666666668,14.842159380512221L216.10474666666667,14.838628961640666L216.20032,14.83651071031773L216.58261333333334,14.835239759523994L216.67818666666668,15.427809956534297L216.77376,15.190019307253905L216.96490666666668,15.04734491768566L217.06048,14.961740283944748L217.25162666666665,14.91037750370018L217.53834666666665,14.87955983555344L217.63392,14.861069234665392L217.82506666666666,15.443307641619135L217.92064,15.199317918304809L218.01621333333333,15.052924084316214L218.39850666666666,14.96508778392308L218.49408,14.91238600368716L218.68522666666667,14.880764935545647L218.78080000000003,14.861792294660717L219.06752,14.850408710129757L219.25866666666667,14.84357855941119L219.73653333333334,14.839480468980042L219.83210666666665,16.02368891796562L219.92768,15.547546684112708L220.02325333333334,15.261861343800941L220.97898666666666,15.090450139613916L221.07456000000002,14.987603417101697L221.26570666666666,14.925895383594327L221.648,15.482203330976505L222.03029333333333,15.81598809940583L222.12586666666667,15.422926192976826L222.60373333333334,15.780421816605996L222.79487999999998,15.40158642329693L222.89045333333334,15.767617954798059L223.0816,15.393904106212151L223.17717333333331,15.169675797060627L223.27274666666668,15.035138811569727L223.65504,14.954416620275145L223.75061333333335,14.905983305498438L223.84618666666665,17.250256154849822L223.94176,20.43681993519149L224.13290666666666,18.195425294448246L224.4196266666667,17.443921277488847L224.5152,16.399686099826646L224.61077333333333,15.77314499322932L224.7063466666667,17.17722040000176L224.99306666666666,16.239665573334392L225.08864000000003,18.05046551555138L225.47093333333333,16.763612642664143L225.56650666666667,17.178168222176087L225.9488,16.240234266638968L226.04437333333334,15.677473893316717L226.23552,15.33981766932336L226.33109333333334,15.137223934927363L226.42666666666665,15.01566769428975L226.61781333333334,15.536066717393739L226.71338666666668,15.254973363769576L227.38240000000002,15.086317351595078L227.47797333333332,14.985123744290382L227.57354666666666,14.924407579907566L227.86026666666666,14.887977881277875L228.24256,15.45945282958661L228.816,15.209005031085317L228.91157333333334,15.058736351984523L229.29386666666667,14.968575144524042L229.38943999999998,16.101145723292046L229.77173333333332,15.594020767308557L229.86730666666668,15.289745793718446L229.96288,15.107180809564424L230.05845333333332,16.777641889802826L230.72746666666666,15.999918467215027L231.10976,15.533284413662352L231.30090666666666,17.626636819748178L231.39648,17.102648192668788L232.0654933333333,16.19492224893461L232.25664,15.650286682694121L232.44778666666664,15.323505342949781L232.63893333333334,15.720769306589796L233.11679999999998,15.365794917287205L233.59466666666668,15.152810283705659L233.78581333333332,15.025019503556743L233.88138666666666,14.948345035467378L233.97696000000002,14.902340354613756L234.26368,14.874737546101588L234.5504,14.85817586099429L234.74154666666666,14.848238849929906L234.83712,14.842276643291255L235.02826666666664,14.838699319308105L235.12384,16.616552995649034L235.21941333333334,17.089932433967043L235.69727999999998,16.187292793713556L235.79285333333334,15.64570900956147L235.88842666666667,15.320758739070214L236.07957333333331,15.125788576775465L236.27072,15.008806479398615L236.84416,14.938617220972505L237.13088,15.489836433403411L237.4176,15.227235193375378L237.70432,15.069674449358535L237.89546666666666,14.975138002948453L238.8512,15.511748902588993L239.13792,15.240382674886728L239.23349333333334,15.077562938265384L239.80693333333332,14.979871096292563L239.99808000000002,15.514588758595437L240.09365333333332,15.242086588490595L240.76266666666666,15.078585286427673L240.95381333333336,14.98048450518994L241.3361066666667,14.92162403644732L241.43168,15.479640522688296L241.81397333333334,15.22111764694629L242.3874133333333,15.06600392150111L242.48298666666668,15.56626845372057L242.57856,15.273094405565677L243.24757333333335,15.09718997667272L243.72544,14.991647319336984L243.82101333333333,14.928321724935538L243.9165866666667,14.890326368294652L244.10773333333333,14.867529154310123L244.29888000000003,15.447183593405974L244.68117333333333,16.38831079262118L244.77674666666667,16.35965257639261L245.06346666666667,15.7491248791689L245.54133333333334,15.382808260834668L246.11477333333332,15.163018289834133L246.30592000000001,15.031144307233816L246.59264000000002,14.952019917673642L247.07050666666666,14.904545283937496L247.26165333333336,14.87606050369585L247.35722666666666,16.638969706281678L247.4528,17.103382460346623L247.6439466666667,16.788695577027855L247.73952,16.00655067955005L247.83509333333333,17.910596579280792L248.12181333333334,17.27302404838838L248.21738666666667,16.297147762366365L248.31295999999998,15.711621990753146L248.6952533333333,15.36030652778522L248.8864,18.116184623979603L249.17312,16.803044107721096L249.45984,16.01515979796599L249.74656,18.50909658608803L250.03328,17.038791284986154L250.2244266666667,19.716608245786738L250.70229333333333,17.76329828080537L251.2757333333333,16.59131230181655L251.7536,16.48145348190984L251.94474666666665,15.82220542247924L252.13589333333334,15.42665658682088L252.23146666666668,15.189327285425879L252.32703999999998,15.046929704588855L252.42261333333335,14.961491156086641L252.51818666666668,14.910228026985337L252.61375999999998,14.87947014952453L252.90048000000002,14.861015423048054L253.56949333333336,14.849942587162165L253.85621333333333,14.843298885630647L253.95178666666666,14.839312664711697L254.23850666666667,15.430253699646926L254.62079999999997,15.191485553121483L255.48096,15.048224665206225L255.76768,14.962268132457071L256.1499733333333,14.910694212807556L256.24554666666666,14.879749861017869L256.4366933333333,14.861183249944073L256.53226666666666,14.850043283299776L256.7234133333333,14.843359303313173" style="fill: none;" fill="none"></path></g></g></g></g><g opacity="0.2"><g><g><g><path stroke="rgb(255, 112, 67)" stroke-width="2px" d="M23.71562666666667,163.16666666666669L23.8112,163.16666666666669L24.38464,163.16666666666669L24.76693333333333,163.16666666666669L24.862506666666665,163.16666666666669L25.149226666666667,163.16666666666669L25.2448,163.16666666666669L25.340373333333336,163.16666666666669L25.53152,163.16666666666669L25.627093333333335,163.16666666666669L25.913813333333334,163.16666666666669L26.009386666666664,163.16666666666669L26.58282666666667,163.16666666666669L27.060693333333333,163.16666666666669L27.251839999999998,163.16666666666669L27.920853333333334,163.16666666666669L28.016426666666668,163.16666666666669L28.112000000000002,163.16666666666669L28.303146666666667,163.16666666666669L28.589866666666666,163.16666666666669L28.876586666666665,163.16666666666669L29.163306666666667,163.16666666666669L29.25888,163.16666666666669L29.354453333333336,163.16666666666669L29.450026666666666,163.16666666666669L29.641173333333334,163.16666666666669L29.73674666666667,163.16666666666669L29.83232,163.16666666666669L29.927893333333333,163.16666666666669L30.11904,163.16666666666669L30.214613333333332,163.16666666666669L30.788053333333334,163.16666666666669L30.979200000000002,163.16666666666669L31.074773333333333,163.16666666666669L31.26592,163.16666666666669L31.55264,163.16666666666669L31.934933333333333,163.16666666666669L32.89066666666667,161.68333474795025L32.98624,161.68333474795025L33.27296,163.16666666666669L33.55968,163.16666666666669L33.655253333333334,163.16666666666669L33.8464,163.16666666666669L34.515413333333335,163.16666666666669L34.99328,163.16666666666669L35.375573333333335,161.68333474795025L35.47114666666667,161.68333474795025L35.66229333333333,160.19999840855598L35.85344,158.71666648983955L35.94901333333333,158.71666648983955L36.42688,158.71666648983955L36.52245333333333,158.71666648983955L37.19146666666667,157.23333457112312L37.38261333333334,158.71666648983955L37.478186666666666,158.71666648983955L37.76490666666667,163.16666666666669L38.43392,163.16666666666669L38.720639999999996,163.16666666666669L38.911786666666664,163.16666666666669L39.10293333333333,163.16666666666669L39.67637333333334,163.16666666666669L39.77194666666667,163.16666666666669L39.867520000000006,163.16666666666669L40.15424,163.16666666666669L40.249813333333336,163.16666666666669L40.34538666666667,163.16666666666669L40.72768,163.16666666666669L41.0144,163.16666666666669L41.109973333333336,163.16666666666669L41.20554666666666,163.16666666666669L41.58784,163.16666666666669L41.683413333333334,163.16666666666669L41.77898666666666,163.16666666666669L42.065706666666664,163.16666666666669L42.448,163.16666666666669L42.73472,163.16666666666669L42.83029333333334,163.16666666666669L42.92586666666667,163.16666666666669L43.02144,163.16666666666669L43.21258666666667,163.16666666666669L43.403733333333335,163.16666666666669L43.59488,163.16666666666669L43.786026666666665,163.16666666666669L43.97717333333333,163.16666666666669L44.07274666666667,163.16666666666669L44.35946666666666,163.16666666666669L44.45504,163.16666666666669L44.55061333333333,163.16666666666669L44.646186666666665,163.16666666666669L44.83733333333333,163.16666666666669L45.315200000000004,163.16666666666669L46.07978666666667,163.16666666666669L46.27093333333333,163.16666666666669L46.46208,163.16666666666669L46.7488,163.16666666666669L46.84437333333333,163.16666666666669L46.939946666666664,163.16666666666669L47.608959999999996,163.16666666666669L47.70453333333333,163.16666666666669L48.08682666666667,163.16666666666669L48.1824,163.16666666666669L48.277973333333335,163.16666666666669L48.469120000000004,163.16666666666669L49.23370666666667,163.16666666666669L49.32928,163.16666666666669L49.616,163.16666666666669L49.80714666666667,163.16666666666669L49.99829333333333,163.16666666666669L50.18944,161.68333474795025L50.380586666666666,161.68333474795025L50.47615999999999,161.68333474795025L50.66730666666667,163.16666666666669L50.85845333333334,163.16666666666669L50.95402666666667,163.16666666666669L51.14517333333333,163.16666666666669L51.62304,163.16666666666669L51.71861333333334,163.16666666666669L51.814186666666664,163.16666666666669L51.90976,163.16666666666669L52.674346666666665,163.16666666666669L52.86549333333333,163.16666666666669L52.96106666666667,163.16666666666669L53.24778666666666,163.16666666666669L53.63008000000001,163.16666666666669L53.82122666666667,163.16666666666669L53.9168,163.16666666666669L54.203520000000005,163.16666666666669L54.394666666666666,163.16666666666669L54.87253333333334,163.16666666666669L55.06368,163.16666666666669L55.15925333333333,163.16666666666669L55.637119999999996,163.16666666666669L55.73269333333333,163.16666666666669L55.92384,163.16666666666669L56.21056,163.16666666666669L56.40170666666667,163.16666666666669L56.49728,163.16666666666669L56.87957333333333,163.16666666666669L57.07072,163.16666666666669L57.166293333333336,163.16666666666669L57.26186666666667,163.16666666666669L57.64416,163.16666666666669L58.02645333333333,163.16666666666669L58.12202666666666,163.16666666666669L58.2176,163.16666666666669L58.31317333333333,163.16666666666669L58.408746666666666,163.16666666666669L58.50432,163.16666666666669L59.17333333333334,161.68333474795025L59.460053333333335,161.68333474795025L59.55562666666667,161.68333474795025L60.320213333333335,163.16666666666669L60.702506666666665,163.16666666666669L60.79808,163.16666666666669L60.89365333333333,163.16666666666669L60.98922666666667,161.68333474795025L61.0848,161.68333474795025L61.37152,161.68333474795025L61.84938666666667,163.16666666666669L62.040533333333336,163.16666666666669L62.422826666666666,163.16666666666669L62.5184,163.16666666666669L62.90069333333334,161.68333474795025L62.99626666666667,161.68333474795025L63.09184,163.16666666666669L63.37856,160.19999840855598L63.665279999999996,157.23333457112312L63.76085333333333,158.71666648983955L64.04757333333333,161.68333474795025L64.14314666666667,161.68333474795025L64.52544,163.16666666666669L65.00330666666667,163.16666666666669L65.09888000000001,163.16666666666669L65.19445333333334,163.16666666666669L65.3856,163.16666666666669L65.48117333333333,163.16666666666669L65.57674666666666,163.16666666666669L65.76789333333333,163.16666666666669L65.86346666666667,163.16666666666669L65.95904,161.68333474795025L66.05461333333334,161.68333474795025L66.43690666666666,163.16666666666669L66.62805333333333,163.16666666666669L66.72362666666666,163.16666666666669L66.8192,163.16666666666669L67.01034666666666,163.16666666666669L67.20149333333333,163.16666666666669L67.39264,163.16666666666669L67.48821333333333,163.16666666666669L67.87050666666667,163.16666666666669L67.96608,163.16666666666669L68.15722666666667,161.68333474795025L68.34837333333333,161.68333474795025L68.73066666666666,163.16666666666669L68.82624,163.16666666666669L69.11296,163.16666666666669L69.20853333333334,163.16666666666669L69.30410666666667,163.16666666666669L69.39968,163.16666666666669L69.59082666666666,163.16666666666669L69.68639999999999,163.16666666666669L69.97312,163.16666666666669L70.06869333333333,163.16666666666669L70.16426666666668,163.16666666666669L70.35541333333333,163.16666666666669L70.64213333333333,163.16666666666669L71.02442666666666,163.16666666666669L71.40671999999999,163.16666666666669L71.50229333333333,163.16666666666669L71.78901333333334,163.16666666666669L72.07573333333333,163.16666666666669L72.17130666666667,163.16666666666669L72.26688,163.16666666666669L72.36245333333333,163.16666666666669L72.45802666666667,163.16666666666669L72.5536,163.16666666666669L72.84031999999999,161.68333474795025L72.93589333333334,161.68333474795025L73.03146666666666,161.68333474795025L73.12704000000001,161.68333474795025L73.41376,163.16666666666669L74.08277333333334,163.16666666666669L74.36949333333334,163.16666666666669L74.46506666666667,163.16666666666669L74.65621333333333,163.16666666666669L74.75178666666667,163.16666666666669L74.84736,163.16666666666669L75.03850666666666,163.16666666666669L75.22965333333333,163.16666666666669L75.4208,163.16666666666669L75.61194666666667,163.16666666666669L75.70752,163.16666666666669L75.99423999999999,163.16666666666669L76.18538666666666,163.16666666666669L76.47210666666666,163.16666666666669L76.56768,161.68333474795025L77.14112,163.16666666666669L77.23669333333333,163.16666666666669L77.33226666666667,163.16666666666669L77.71456,163.16666666666669L78.00128,163.16666666666669L78.19242666666666,163.16666666666669L78.47914666666667,160.19999840855598L78.86144,157.23333457112312L79.24373333333334,158.71666648983955L79.33930666666666,157.23333457112312L79.43488,158.71666648983955L79.62602666666666,154.26666631301245L79.81717333333333,151.29999805490178L79.91274666666668,146.84999787807465L80.00832,142.40000212192535L80.19946666666667,133.50000176827115L80.39061333333333,132.01666542887688L80.48618666666667,133.50000176827115L80.58176,132.01666542887688L80.67733333333334,126.08333333333331L80.96405333333333,120.14999902745086L81.05962666666667,121.63333315650624L81.53749333333333,117.18333297967911L81.72864,115.70000106096268L82.01536,126.08333333333331L82.11093333333332,124.59999920427799L82.30207999999999,127.56666525204975L82.49322666666666,124.59999920427799L82.68437333333334,120.14999902745086L82.87552000000001,129.05000159144402L82.97109333333333,130.53333351016045L83.25781333333335,139.43333386381468L83.44896,152.78333439429602L83.54453333333333,154.26666631301245L83.92682666666666,158.71666648983955L84.30912,163.16666666666669L84.59584,160.19999840855598L84.69141333333333,160.19999840855598L84.78698666666666,160.19999840855598L84.88256,160.19999840855598L84.97813333333333,160.19999840855598L85.456,160.19999840855598L85.64714666666667,152.78333439429602L85.74272,149.81666613618535L85.83829333333334,142.40000212192535L85.93386666666666,134.98333368698758L86.02944000000001,129.05000159144402L86.31616,133.50000176827115L86.50730666666666,129.05000159144402L87.17632,130.53333351016045L87.46303999999999,136.466665605704L87.94090666666666,136.466665605704L88.03648,139.43333386381468L88.13205333333333,136.466665605704L88.41877333333333,130.53333351016045L88.60992,136.466665605704L88.70549333333334,129.05000159144402L88.80106666666667,126.08333333333331L89.08778666666666,118.66666710873443L89.56565333333333,133.50000176827115L89.7568,142.40000212192535L89.94794666666667,130.53333351016045L90.04352,126.08333333333331L90.23466666666666,129.05000159144402L90.52138666666667,134.98333368698758L90.61695999999999,127.56666525204975L90.80810666666666,130.53333351016045L91.19040000000001,127.56666525204975L91.28597333333333,123.11666728556156L91.47712,121.63333315650624L91.76384,115.70000106096268L91.95498666666667,126.08333333333331L92.24170666666666,132.01666542887688L92.33728,129.05000159144402L92.52842666666668,127.56666525204975L92.71957333333333,124.59999920427799L92.81514666666666,120.14999902745086L93.00629333333333,118.66666710873443L93.10186666666667,123.11666728556156L93.29301333333333,120.14999902745086L93.38858666666665,121.63333315650624L93.48416,114.21666693190735L93.96202666666667,118.66666710873443L94.34432000000001,136.466665605704L94.43989333333333,137.95000194509825L94.53546666666668,137.95000194509825L95.58677333333333,129.05000159144402L95.68234666666667,134.98333368698758L95.87349333333333,129.05000159144402L96.44693333333333,112.73333280285198L96.54250666666667,115.70000106096268L96.82922666666667,130.53333351016045L96.9248,130.53333351016045L97.21152,130.53333351016045L97.49824000000001,132.01666542887688L97.59381333333333,115.70000106096268L97.78496,117.18333297967911L97.88053333333333,117.18333297967911L97.97610666666667,132.01666542887688L98.07168,134.98333368698758L98.16725333333333,136.466665605704L98.74069333333333,134.98333368698758L99.02741333333333,103.83333355436724L99.792,123.11666728556156L100.26986666666667,112.73333280285198L100.36543999999999,109.76666675508022L100.46101333333334,114.21666693190735L100.55658666666666,114.21666693190735L100.84330666666666,86.03333339964351L101.60789333333334,89L101.70346666666666,94.93333320071298L101.89461333333333,96.4166667771836L102.08576000000001,91.96666660035652L102.46805333333334,96.4166667771836L102.56362666666666,97.8999998010695L102.94592,93.44999990053475L103.04149333333334,89L103.23264,97.8999998010695L103.32821333333332,99.38333337754011L103.42378666666667,96.4166667771836L103.61493333333334,99.38333337754011L103.71050666666666,96.4166667771836L103.99722666666666,99.38333337754011L104.18837333333333,86.03333339964351L104.66623999999999,87.51666669982174L104.76181333333334,86.03333339964351L105.04853333333334,83.06666679928699L105.33525333333333,90.48333330017823L105.62197333333334,87.51666669982174L105.81312,90.48333330017823L106.09984,94.93333320071298L106.19541333333333,93.44999990053475L106.57770666666667,99.38333337754011L106.67327999999999,93.44999990053475L107.91573333333334,86.03333339964351L108.01130666666667,77.13333359857401L108.10688,75.64999946951866L108.29802666666666,93.44999990053475L108.48917333333333,91.96666660035652L108.68032,81.58333322281638L108.96704,91.96666660035652L109.15818666666667,86.03333339964351L109.25376,75.64999946951866L109.54048,94.93333320071298L109.63605333333332,91.96666660035652L109.82719999999999,80.1000001989305L110.11392000000001,89L110.20949333333333,87.51666669982174L110.40064000000001,108.2833326260249L110.49621333333333,97.8999998010695L110.78293333333335,94.93333320071298L111.16522666666667,89L111.2608,90.48333330017823L111.45194666666666,93.44999990053475L111.64309333333333,91.96666660035652L112.02538666666666,86.03333339964351L112.12096,89L112.31210666666666,96.4166667771836L112.40768,93.44999990053475L112.50325333333333,83.06666679928699L112.59882666666667,78.61666662245989L112.78997333333332,93.44999990053475L113.17226666666667,84.55000009946525L113.36341333333334,86.03333339964351L113.45898666666666,87.51666669982174L113.74570666666668,96.4166667771836L114.128,102.35000053048134L114.41472,99.38333337754011L114.70144,93.44999990053475L114.79701333333333,86.03333339964351L115.17930666666666,74.16666644563279L115.37045333333333,65.266667197148L115.46602666666666,59.33333289126554L115.65717333333333,41.53333439429602L115.84832,53.40000079572201L115.94389333333334,62.29999893903732L116.23061333333334,57.85000097254911L116.70848000000001,59.33333289126554L116.89962666666668,63.783333068092674L116.9952,68.23333324491978L117.18634666666667,60.81666702032089L117.28192,63.783333068092674L117.66421333333334,60.81666702032089L118.04650666666667,48.949998408555984L118.23765333333334,50.43333474795023L118.4288,68.23333324491978L118.61994666666666,50.43333474795023L118.81109333333333,50.43333474795023L118.90666666666668,54.88333271443844L119.19338666666667,62.29999893903732L119.28896,59.33333289126554L119.38453333333334,57.85000097254911L119.57567999999999,65.266667197148L120.05354666666668,51.91666666666666L120.24469333333333,50.43333474795023L120.43584,56.36666684349379L120.53141333333333,62.29999893903732L120.62698666666667,62.29999893903732L121.10485333333332,54.88333271443844L121.48714666666667,62.29999893903732L121.67829333333334,56.36666684349379L121.77386666666666,56.36666684349379L122.34730666666667,53.40000079572201L122.44288,60.81666702032089L122.53845333333334,60.81666702032089L122.63402666666667,51.91666666666666L122.72959999999999,51.91666666666666L123.11189333333333,51.91666666666666L123.39861333333333,47.466666489839554L123.97205333333333,86.03333339964351L124.06762666666665,94.93333320071298L124.35434666666667,87.51666669982174L124.54549333333333,102.35000053048134L124.64106666666667,100.86666640142602L124.73664,109.76666675508022L124.92778666666666,111.25000088413555L125.21450666666667,81.58333322281638L125.40565333333333,93.44999990053475L125.5968,86.03333339964351L125.69237333333334,77.13333359857401L125.78794666666667,69.71666737397513L125.88351999999999,74.16666644563279L125.97909333333334,81.58333322281638L126.07466666666666,86.03333339964351L126.36138666666668,83.06666679928699L126.45696,83.06666679928699L126.64810666666666,102.35000053048134L126.74368,97.8999998010695L126.83925333333333,96.4166667771836L127.12597333333333,94.93333320071298L127.22154666666667,93.44999990053475L127.31712,99.38333337754011L127.69941333333333,87.51666669982174L128.36842666666666,93.44999990053475L128.55957333333333,84.55000009946525L128.75072,96.4166667771836L128.84629333333334,102.35000053048134L128.94186666666667,103.83333355436724L129.22858666666667,81.58333322281638L129.41973333333334,84.55000009946525L129.61087999999998,90.48333330017823L129.70645333333334,91.96666660035652L129.8976,84.55000009946525L130.37546666666668,103.83333355436724L130.56661333333335,80.1000001989305L130.66218666666666,77.13333359857401L130.94890666666666,80.1000001989305L131.04448,75.64999946951866L131.23562666666666,89L131.3312,93.44999990053475L131.52234666666666,83.06666679928699L131.61792,78.61666662245989L131.80906666666667,72.68333342174688L131.90464,80.1000001989305L132.00021333333333,84.55000009946525L132.28693333333334,72.68333342174688L132.5736533333333,78.61666662245989L132.86037333333334,103.83333355436724L132.95594666666668,106.799999602139L133.14709333333334,91.96666660035652L133.33824,93.44999990053475L133.43381333333332,89L133.52938666666668,94.93333320071298L133.62496,96.4166667771836L134.29397333333333,106.799999602139L134.48512,115.70000106096268L134.67626666666666,103.83333355436724L134.96298666666667,91.96666660035652L135.53642666666667,86.03333339964351L135.632,84.55000009946525L135.82314666666667,97.8999998010695L135.91872,100.86666640142602L136.01429333333334,96.4166667771836L136.39658666666665,94.93333320071298L136.58773333333332,93.44999990053475L136.77888,86.03333339964351L136.97002666666666,83.06666679928699L137.0656,87.51666669982174L137.16117333333332,90.48333330017823L137.44789333333333,81.58333322281638L137.54346666666666,81.58333322281638L137.63904,90.48333330017823L137.83018666666666,97.8999998010695L137.92576,97.8999998010695L138.21248,90.48333330017823L138.59477333333334,86.03333339964351L138.69034666666667,90.48333330017823L138.78592,78.61666662245989L138.97706666666667,80.1000001989305L139.35936,60.81666702032089L139.45493333333334,59.33333289126554L139.83722666666668,48.949998408555984L140.31509333333332,56.36666684349379L140.50624000000002,41.53333439429602L140.88853333333333,57.85000097254911L141.17525333333336,53.40000079572201L141.27082666666666,53.40000079572201L141.74869333333334,50.43333474795023L141.93984,60.81666702032089L142.13098666666667,44.49999823172888L142.22655999999998,47.466666489839554L142.32213333333334,54.88333271443844L142.51328,59.33333289126554L142.8,59.33333289126554L142.89557333333332,53.40000079572201L142.99114666666665,54.88333271443844L143.08672,56.36666684349379L143.27786666666665,54.88333271443844L143.46901333333335,51.91666666666666L143.56458666666666,62.29999893903732L143.8513066666667,53.40000079572201L143.94688,56.36666684349379L144.52032000000003,60.81666702032089L144.90261333333333,54.88333271443844L145.38048,45.98333457112312L145.47605333333334,41.53333439429602L145.57162666666665,45.98333457112312L145.95391999999998,41.53333439429602L146.24063999999998,63.783333068092674L146.71850666666668,48.949998408555984L147.00522666666666,63.783333068092674L147.48309333333336,53.40000079572201L147.57866666666666,53.40000079572201L147.86538666666667,40.04999805490175L148.24768,38.56666613618532L148.62997333333334,34.116665959358215L149.10784,16.316665252049752L149.58570666666665,20.766665428876856L149.77685333333335,14.83333333333332L150.06357333333335,19.283333510160425L150.1591466666667,19.283333510160425L150.35029333333333,17.800001591443994L151.01930666666667,16.316665252049752L151.87946666666664,14.83333333333332L151.97504,16.316665252049752L152.16618666666665,26.70000194509823L152.26176,19.283333510160425L152.54847999999998,28.18333386381466L152.64405333333335,16.316665252049752L152.8352,16.316665252049752L153.21749333333332,14.83333333333332L153.40864000000002,14.83333333333332L153.79093333333336,16.316665252049752L153.88650666666666,14.83333333333332L153.98208,14.83333333333332L154.07765333333333,17.800001591443994L154.17322666666666,17.800001591443994L154.55552,14.83333333333332L154.84224,14.83333333333332L154.93781333333334,14.83333333333332L155.32010666666667,16.316665252049752L155.79797333333332,16.316665252049752L155.89354666666665,14.83333333333332L156.27584,14.83333333333332L156.56256,19.283333510160425L156.94485333333333,14.83333333333332L157.51829333333333,17.800001591443994L158.76074666666668,17.800001591443994L158.85631999999998,14.83333333333332L159.23861333333332,20.766665428876856L160.19434666666666,14.83333333333332L160.28992,14.83333333333332L160.67221333333333,14.83333333333332L160.86336,16.316665252049752L160.95893333333333,14.83333333333332L161.05450666666667,14.83333333333332L161.15008,14.83333333333332L161.43679999999998,19.283333510160425L161.72352,14.83333333333332L161.91466666666668,19.283333510160425L162.10581333333332,14.83333333333332L162.20138666666665,25.216665605703962L162.39253333333335,14.83333333333332L162.48810666666665,17.800001591443994L162.58368,14.83333333333332L162.67925333333335,14.83333333333332L162.77482666666666,14.83333333333332L162.8704,16.316665252049752L162.96597333333332,14.83333333333332L163.0615466666667,14.83333333333332L163.25269333333333,14.83333333333332L163.92170666666667,14.83333333333332L164.20842666666667,14.83333333333332L164.304,14.83333333333332L164.49514666666667,16.316665252049752L165.16415999999998,14.83333333333332L165.54645333333332,14.83333333333332L165.7376,19.283333510160425L165.83317333333332,14.83333333333332L166.11989333333332,14.83333333333332L166.21546666666666,14.83333333333332L166.59776,14.83333333333332L166.69333333333336,14.83333333333332L166.78890666666666,14.83333333333332L166.98005333333333,14.83333333333332L167.64906666666667,19.283333510160425L167.74463999999998,14.83333333333332L167.84021333333334,22.2500017682711L168.03136,14.83333333333332L168.22250666666667,16.316665252049752L168.31808,14.83333333333332L168.98709333333335,17.800001591443994L169.46496,14.83333333333332L170.03840000000002,14.83333333333332L170.32512,14.83333333333332L170.42069333333333,14.83333333333332L170.7074133333333,16.316665252049752L171.37642666666665,20.766665428876856L171.66314666666668,14.83333333333332L171.75871999999998,14.83333333333332L171.85429333333335,16.316665252049752L172.71445333333332,14.83333333333332L173.00117333333336,14.83333333333332L173.09674666666666,14.83333333333332L173.28789333333333,14.83333333333332L173.47904,14.83333333333332L173.57461333333333,14.83333333333332L173.67018666666667,14.83333333333332L173.76576,14.83333333333332L174.05247999999997,14.83333333333332L174.24362666666667,14.83333333333332L174.43477333333334,14.83333333333332L174.53034666666667,23.73333368698753L174.62592,14.83333333333332L174.91264,14.83333333333332L175.39050666666665,14.83333333333332L175.86837333333332,16.316665252049752L175.9639466666667,14.83333333333332L176.05952,14.83333333333332L176.44181333333333,14.83333333333332L176.53738666666666,26.70000194509823L176.63296,20.766665428876856L177.39754666666667,14.83333333333332L177.58869333333334,14.83333333333332L177.68426666666664,17.800001591443994L177.87541333333334,14.83333333333332L178.44885333333332,14.83333333333332L178.64000000000001,14.83333333333332L178.83114666666665,14.83333333333332L178.92672000000002,14.83333333333332L179.30901333333335,29.66666578253109L179.69130666666666,20.766665428876856L179.88245333333333,14.83333333333332L180.16917333333333,16.316665252049752L180.26474666666667,14.83333333333332L180.74261333333334,14.83333333333332L180.83818666666667,14.83333333333332L181.0293333333333,14.83333333333332L181.22048,14.83333333333332L181.31605333333334,14.83333333333332L181.41162666666665,14.83333333333332L181.5072,14.83333333333332L181.69834666666665,14.83333333333332L181.88949333333335,14.83333333333332L182.27178666666669,14.83333333333332L182.46293333333332,14.83333333333332L182.65408000000002,17.800001591443994L182.94080000000002,14.83333333333332L183.03637333333333,14.83333333333332L183.41866666666667,14.83333333333332L183.70538666666667,14.83333333333332L183.89653333333334,48.949998408555984L183.99210666666664,31.150002121925354L184.18325333333334,25.216665605703962L184.46997333333334,14.83333333333332L184.56554666666668,16.316665252049752L184.66111999999998,14.83333333333332L184.75669333333332,14.83333333333332L185.23456000000002,14.83333333333332L185.33013333333332,14.83333333333332L185.42570666666666,23.73333368698753L185.61685333333335,37.08333421746889L185.808,17.800001591443994L185.90357333333336,19.283333510160425L186.09472,17.800001591443994L186.2858666666667,14.83333333333332L186.57258666666667,14.83333333333332L186.76373333333333,14.83333333333332L186.85930666666667,14.83333333333332L186.95487999999997,28.18333386381466L187.05045333333334,17.800001591443994L187.6238933333333,14.83333333333332L188.00618666666665,14.83333333333332L188.10175999999998,20.766665428876856L188.19733333333335,14.83333333333332L188.29290666666665,14.83333333333332L188.77077333333332,14.83333333333332L189.53536,16.316665252049752L189.63093333333333,14.83333333333332L190.01322666666667,14.83333333333332L190.20437333333334,16.316665252049752L190.49109333333334,14.83333333333332L190.58666666666667,16.316665252049752L190.68223999999998,14.83333333333332L190.77781333333334,14.83333333333332L190.96895999999998,29.66666578253109L191.06453333333334,16.316665252049752L191.35125333333332,23.73333368698753L191.82912000000002,23.73333368698753L191.92469333333335,22.2500017682711L192.11584,17.800001591443994L192.40256,16.316665252049752L193.07157333333333,14.83333333333332L193.16714666666667,14.83333333333332L193.26271999999997,14.83333333333332L193.54944,14.83333333333332L193.9317333333333,14.83333333333332L194.02730666666668,19.283333510160425L194.12288,14.83333333333332L194.4096,14.83333333333332L194.50517333333335,14.83333333333332L194.69632,14.83333333333332L194.88746666666668,14.83333333333332L195.07861333333332,14.83333333333332L195.46090666666666,26.70000194509823L195.65205333333333,14.83333333333332L196.2254933333333,16.316665252049752L196.41664,14.83333333333332L196.79893333333334,31.150002121925354L197.27679999999998,14.83333333333332L197.65909333333332,14.83333333333332L197.94581333333332,17.800001591443994L198.04138666666665,14.83333333333332L198.23253333333332,26.70000194509823L198.32810666666666,14.83333333333332L198.51925333333335,16.316665252049752L198.61482666666666,14.83333333333332L198.7104,22.2500017682711L198.90154666666666,17.800001591443994L198.99712,17.800001591443994L199.09269333333333,14.83333333333332L199.76170666666667,14.83333333333332L199.85728,14.83333333333332L199.95285333333334,14.83333333333332L200.04842666666667,14.83333333333332L200.33514666666667,14.83333333333332L201.19530666666668,16.316665252049752L201.5776,20.766665428876856L201.67317333333332,16.316665252049752L201.76874666666666,14.83333333333332L201.86432000000002,14.83333333333332L202.24661333333333,17.800001591443994L202.34218666666666,16.316665252049752L202.53333333333336,14.83333333333332L202.62890666666667,14.83333333333332L202.82005333333333,14.83333333333332L203.10677333333334,14.83333333333332L203.39349333333334,23.73333368698753L203.48906666666667,23.73333368698753L203.68021333333334,14.83333333333332L203.87135999999998,19.283333510160425L204.06250666666668,14.83333333333332L204.54037333333332,16.316665252049752L204.92266666666666,14.83333333333332L205.20938666666666,14.83333333333332L205.59168,14.83333333333332L205.78282666666667,14.83333333333332L205.8784,14.83333333333332L205.97397333333333,19.283333510160425L206.26069333333334,20.766665428876856L206.73856,14.83333333333332L207.31199999999998,16.316665252049752L207.40757333333335,14.83333333333332L207.50314666666668,20.766665428876856L207.78986666666668,16.316665252049752L208.07658666666669,14.83333333333332L208.36330666666666,14.83333333333332L208.45888000000002,14.83333333333332L208.84117333333336,14.83333333333332L208.93674666666666,14.83333333333332L209.03232,14.83333333333332L209.31904,14.83333333333332L209.51018666666664,14.83333333333332L209.79690666666667,14.83333333333332L209.89247999999998,14.83333333333332L210.08362666666667,14.83333333333332L210.37034666666668,14.83333333333332L210.75264,14.83333333333332L210.84821333333332,17.800001591443994L210.94378666666665,14.83333333333332L211.03936000000002,14.83333333333332L211.13493333333335,14.83333333333332L211.32608,14.83333333333332L211.42165333333335,14.83333333333332L211.51722666666666,14.83333333333332L211.6128,19.283333510160425L212.18624,14.83333333333332L212.37738666666667,19.283333510160425L212.56853333333333,14.83333333333332L212.66410666666667,14.83333333333332L212.75968,14.83333333333332L212.8552533333333,14.83333333333332L212.95082666666667,14.83333333333332L213.14197333333334,14.83333333333332L213.33312,14.83333333333332L213.42869333333334,14.83333333333332L213.71541333333334,14.83333333333332L213.81098666666668,14.83333333333332L214.09770666666668,14.83333333333332L216.10474666666667,14.83333333333332L216.20032,14.83333333333332L216.58261333333334,14.83333333333332L216.67818666666668,16.316665252049752L216.77376,14.83333333333332L216.96490666666668,14.83333333333332L217.06048,14.83333333333332L217.25162666666665,14.83333333333332L217.53834666666665,14.83333333333332L217.63392,14.83333333333332L217.82506666666666,16.316665252049752L217.92064,14.83333333333332L218.01621333333333,14.83333333333332L218.39850666666666,14.83333333333332L218.49408,14.83333333333332L218.68522666666667,14.83333333333332L218.78080000000003,14.83333333333332L219.06752,14.83333333333332L219.25866666666667,14.83333333333332L219.73653333333334,14.83333333333332L219.83210666666665,17.800001591443994L219.92768,14.83333333333332L220.02325333333334,14.83333333333332L220.97898666666666,14.83333333333332L221.07456000000002,14.83333333333332L221.26570666666666,14.83333333333332L221.648,16.316665252049752L222.03029333333333,16.316665252049752L222.12586666666667,14.83333333333332L222.60373333333334,16.316665252049752L222.79487999999998,14.83333333333332L222.89045333333334,16.316665252049752L223.0816,14.83333333333332L223.17717333333331,14.83333333333332L223.27274666666668,14.83333333333332L223.65504,14.83333333333332L223.75061333333335,14.83333333333332L223.84618666666665,20.766665428876856L223.94176,25.216665605703962L224.13290666666666,14.83333333333332L224.4196266666667,16.316665252049752L224.5152,14.83333333333332L224.61077333333333,14.83333333333332L224.7063466666667,19.283333510160425L224.99306666666666,14.83333333333332L225.08864000000003,20.766665428876856L225.47093333333333,14.83333333333332L225.56650666666667,17.800001591443994L225.9488,14.83333333333332L226.04437333333334,14.83333333333332L226.23552,14.83333333333332L226.33109333333334,14.83333333333332L226.42666666666665,14.83333333333332L226.61781333333334,16.316665252049752L226.71338666666668,14.83333333333332L227.38240000000002,14.83333333333332L227.47797333333332,14.83333333333332L227.57354666666666,14.83333333333332L227.86026666666666,14.83333333333332L228.24256,16.316665252049752L228.816,14.83333333333332L228.91157333333334,14.83333333333332L229.29386666666667,14.83333333333332L229.38943999999998,17.800001591443994L229.77173333333332,14.83333333333332L229.86730666666668,14.83333333333332L229.96288,14.83333333333332L230.05845333333332,19.283333510160425L230.72746666666666,14.83333333333332L231.10976,14.83333333333332L231.30090666666666,20.766665428876856L231.39648,16.316665252049752L232.0654933333333,14.83333333333332L232.25664,14.83333333333332L232.44778666666664,14.83333333333332L232.63893333333334,16.316665252049752L233.11679999999998,14.83333333333332L233.59466666666668,14.83333333333332L233.78581333333332,14.83333333333332L233.88138666666666,14.83333333333332L233.97696000000002,14.83333333333332L234.26368,14.83333333333332L234.5504,14.83333333333332L234.74154666666666,14.83333333333332L234.83712,14.83333333333332L235.02826666666664,14.83333333333332L235.12384,19.283333510160425L235.21941333333334,17.800001591443994L235.69727999999998,14.83333333333332L235.79285333333334,14.83333333333332L235.88842666666667,14.83333333333332L236.07957333333331,14.83333333333332L236.27072,14.83333333333332L236.84416,14.83333333333332L237.13088,16.316665252049752L237.4176,14.83333333333332L237.70432,14.83333333333332L237.89546666666666,14.83333333333332L238.8512,16.316665252049752L239.13792,14.83333333333332L239.23349333333334,14.83333333333332L239.80693333333332,14.83333333333332L239.99808000000002,16.316665252049752L240.09365333333332,14.83333333333332L240.76266666666666,14.83333333333332L240.95381333333336,14.83333333333332L241.3361066666667,14.83333333333332L241.43168,16.316665252049752L241.81397333333334,14.83333333333332L242.3874133333333,14.83333333333332L242.48298666666668,16.316665252049752L242.57856,14.83333333333332L243.24757333333335,14.83333333333332L243.72544,14.83333333333332L243.82101333333333,14.83333333333332L243.9165866666667,14.83333333333332L244.10773333333333,14.83333333333332L244.29888000000003,16.316665252049752L244.68117333333333,17.800001591443994L244.77674666666667,16.316665252049752L245.06346666666667,14.83333333333332L245.54133333333334,14.83333333333332L246.11477333333332,14.83333333333332L246.30592000000001,14.83333333333332L246.59264000000002,14.83333333333332L247.07050666666666,14.83333333333332L247.26165333333336,14.83333333333332L247.35722666666666,19.283333510160425L247.4528,17.800001591443994L247.6439466666667,16.316665252049752L247.73952,14.83333333333332L247.83509333333333,20.766665428876856L248.12181333333334,16.316665252049752L248.21738666666667,14.83333333333332L248.31295999999998,14.83333333333332L248.6952533333333,14.83333333333332L248.8864,22.2500017682711L249.17312,14.83333333333332L249.45984,14.83333333333332L249.74656,22.2500017682711L250.03328,14.83333333333332L250.2244266666667,23.73333368698753L250.70229333333333,14.83333333333332L251.2757333333333,14.83333333333332L251.7536,16.316665252049752L251.94474666666665,14.83333333333332L252.13589333333334,14.83333333333332L252.23146666666668,14.83333333333332L252.32703999999998,14.83333333333332L252.42261333333335,14.83333333333332L252.51818666666668,14.83333333333332L252.61375999999998,14.83333333333332L252.90048000000002,14.83333333333332L253.56949333333336,14.83333333333332L253.85621333333333,14.83333333333332L253.95178666666666,14.83333333333332L254.23850666666667,16.316665252049752L254.62079999999997,14.83333333333332L255.48096,14.83333333333332L255.76768,14.83333333333332L256.1499733333333,14.83333333333332L256.24554666666666,14.83333333333332L256.4366933333333,14.83333333333332L256.53226666666666,14.83333333333332L256.7234133333333,14.83333333333332" style="fill: none;" fill="none"></path></g></g></g></g></g></g><g transform="translate(50, 178)" clip-path="url(#clip_1)"><clipPath id="clip_1"><rect width="280" height="22"></rect></clipPath><g><g><line x1="0" y1="0" x2="0" y2="5" style="visibility: inherit;" fill="rgb(0, 0, 0)" stroke="rgb(204, 204, 204)" stroke-width="1px"></line><line x1="23.333333333333332" y1="0" x2="23.333333333333332" y2="5" style="visibility: inherit;" fill="rgb(0, 0, 0)" stroke="rgb(204, 204, 204)" stroke-width="1px"></line><line x1="46.666666666666664" y1="0" x2="46.666666666666664" y2="5" style="visibility: inherit;" fill="rgb(0, 0, 0)" stroke="rgb(204, 204, 204)" stroke-width="1px"></line><line x1="70" y1="0" x2="70" y2="5" style="visibility: inherit;" fill="rgb(0, 0, 0)" stroke="rgb(204, 204, 204)" stroke-width="1px"></line><line x1="93.33333333333333" y1="0" x2="93.33333333333333" y2="5" style="visibility: inherit;" fill="rgb(0, 0, 0)" stroke="rgb(204, 204, 204)" stroke-width="1px"></line><line x1="116.66666666666667" y1="0" x2="116.66666666666667" y2="5" style="visibility: inherit;" fill="rgb(0, 0, 0)" stroke="rgb(204, 204, 204)" stroke-width="1px"></line><line x1="140" y1="0" x2="140" y2="5" style="visibility: inherit;" fill="rgb(0, 0, 0)" stroke="rgb(204, 204, 204)" stroke-width="1px"></line><line x1="163.33333333333334" y1="0" x2="163.33333333333334" y2="5" style="visibility: inherit;" fill="rgb(0, 0, 0)" stroke="rgb(204, 204, 204)" stroke-width="1px"></line><line x1="186.66666666666666" y1="0" x2="186.66666666666666" y2="5" style="visibility: inherit;" fill="rgb(0, 0, 0)" stroke="rgb(204, 204, 204)" stroke-width="1px"></line><line x1="210" y1="0" x2="210" y2="5" style="visibility: inherit;" fill="rgb(0, 0, 0)" stroke="rgb(204, 204, 204)" stroke-width="1px"></line><line x1="233.33333333333334" y1="0" x2="233.33333333333334" y2="5" style="visibility: inherit;" fill="rgb(0, 0, 0)" stroke="rgb(204, 204, 204)" stroke-width="1px"></line><line x1="256.66666666666663" y1="0" x2="256.66666666666663" y2="5" style="visibility: inherit;" fill="rgb(0, 0, 0)" stroke="rgb(204, 204, 204)" stroke-width="1px"></line><line x1="280" y1="0" x2="280" y2="5" style="visibility: inherit;" fill="rgb(0, 0, 0)" stroke="rgb(204, 204, 204)" stroke-width="1px"></line></g><g transform="translate(0, 8)"><text x="0" y="0" dx="0em" dy="0.95em" style="text-anchor: middle; visibility: hidden; font-family: Roboto, sans-serif; font-size: 12px; font-weight: 200;" fill="rgb(50, 49, 63)" stroke="none" stroke-width="1px">-500k</text><text x="23.333333333333332" y="0" dx="0em" dy="0.95em" style="text-anchor: middle; visibility: inherit; font-family: Roboto, sans-serif; font-size: 12px; font-weight: 200;" fill="rgb(50, 49, 63)" stroke="none" stroke-width="1px">0</text><text x="46.666666666666664" y="0" dx="0em" dy="0.95em" style="text-anchor: middle; visibility: hidden; font-family: Roboto, sans-serif; font-size: 12px; font-weight: 200;" fill="rgb(50, 49, 63)" stroke="none" stroke-width="1px">500k</text><text x="70" y="0" dx="0em" dy="0.95em" style="text-anchor: middle; visibility: inherit; font-family: Roboto, sans-serif; font-size: 12px; font-weight: 200;" fill="rgb(50, 49, 63)" stroke="none" stroke-width="1px">1M</text><text x="93.33333333333333" y="0" dx="0em" dy="0.95em" style="text-anchor: middle; visibility: hidden; font-family: Roboto, sans-serif; font-size: 12px; font-weight: 200;" fill="rgb(50, 49, 63)" stroke="none" stroke-width="1px">1.5M</text><text x="116.66666666666667" y="0" dx="0em" dy="0.95em" style="text-anchor: middle; visibility: inherit; font-family: Roboto, sans-serif; font-size: 12px; font-weight: 200;" fill="rgb(50, 49, 63)" stroke="none" stroke-width="1px">2M</text><text x="140" y="0" dx="0em" dy="0.95em" style="text-anchor: middle; visibility: hidden; font-family: Roboto, sans-serif; font-size: 12px; font-weight: 200;" fill="rgb(50, 49, 63)" stroke="none" stroke-width="1px">2.5M</text><text x="163.33333333333334" y="0" dx="0em" dy="0.95em" style="text-anchor: middle; visibility: inherit; font-family: Roboto, sans-serif; font-size: 12px; font-weight: 200;" fill="rgb(50, 49, 63)" stroke="none" stroke-width="1px">3M</text><text x="186.66666666666666" y="0" dx="0em" dy="0.95em" style="text-anchor: middle; visibility: hidden; font-family: Roboto, sans-serif; font-size: 12px; font-weight: 200;" fill="rgb(50, 49, 63)" stroke="none" stroke-width="1px">3.5M</text><text x="210" y="0" dx="0em" dy="0.95em" style="text-anchor: middle; visibility: inherit; font-family: Roboto, sans-serif; font-size: 12px; font-weight: 200;" fill="rgb(50, 49, 63)" stroke="none" stroke-width="1px">4M</text><text x="233.33333333333334" y="0" dx="0em" dy="0.95em" style="text-anchor: middle; visibility: hidden; font-family: Roboto, sans-serif; font-size: 12px; font-weight: 200;" fill="rgb(50, 49, 63)" stroke="none" stroke-width="1px">4.5M</text><text x="256.66666666666663" y="0" dx="0em" dy="0.95em" style="text-anchor: middle; visibility: inherit; font-family: Roboto, sans-serif; font-size: 12px; font-weight: 200;" fill="rgb(50, 49, 63)" stroke="none" stroke-width="1px">5M</text><text x="280" y="0" dx="0em" dy="0.95em" style="text-anchor: middle; visibility: hidden; font-family: Roboto, sans-serif; font-size: 12px; font-weight: 200;" fill="rgb(50, 49, 63)" stroke="none" stroke-width="1px">5.5M</text></g><line x1="0" y1="0" x2="280" y2="0" fill="rgb(0, 0, 0)" stroke="rgb(204, 204, 204)" stroke-width="1px"></line></g></g></g></g></svg>
